M48
;DRILL file {KiCad (5.0.0-rc2-dev-222-g3b0a758)} date Wednesday, 21 March 2018 at 23:14:25
;FORMAT={-:-/ absolute / inch / decimal}
FMAT,2
INCH,TZ
T1C0.0118
T2C0.0200
T3C0.0300
T4C0.0314
T5C0.0394
%
G90
G05
M72
T1
X1.9961Y-2.0866
X1.9961Y-3.7402
X2.0079Y-2.0433
X2.0079Y-2.1299
X2.0079Y-3.6969
X2.0079Y-3.7835
X2.0433Y-2.0079
X2.0433Y-2.1654
X2.0433Y-3.6614
X2.0433Y-3.8189
X2.0669Y-2.3031
X2.0866Y-1.9961
X2.0866Y-2.1772
X2.0866Y-3.6496
X2.0866Y-3.8307
X2.1024Y-3.3031
X2.126Y-2.7165
X2.126Y-3.1102
X2.1299Y-2.0079
X2.1299Y-2.1654
X2.1299Y-3.6614
X2.1299Y-3.8189
X2.1457Y-3.5236
X2.1654Y-2.0433
X2.1654Y-2.1299
X2.1654Y-3.6969
X2.1654Y-3.7835
X2.1772Y-2.0866
X2.1772Y-3.7402
X2.2303Y-3.002
X2.2421Y-2.9075
X2.2717Y-3.5
X2.3228Y-2.3031
X2.3228Y-3.5059
X2.3504Y-3.4744
X2.4173Y-3.0945
X2.4917Y-2.8901
X2.4961Y-2.9173
X2.4961Y-2.9449
X2.5276Y-2.4882
X2.5354Y-2.8346
X2.5492Y-3.3996
X2.5719Y-3.4213
X2.5935Y-3.4419
X2.5984Y-2.3425
X2.6102Y-2.7441
X2.6161Y-3.0827
X2.6291Y-3.5559
X2.6417Y-2.8497
X2.6417Y-3.1988
X2.6441Y-3.3764
X2.6555Y-3.487
X2.6634Y-3.5591
X2.6654Y-2.4449
X2.672Y-3.3008
X2.6772Y-2.6181
X2.6886Y-3.7169
X2.6922Y-2.8763
X2.6957Y-3.0146
X2.7016Y-3.2567
X2.7087Y-2.8996
X2.7129Y-3.0362
X2.7144Y-3.2201
X2.7165Y-2.2047
X2.752Y-2.8819
X2.7559Y-2.8228
X2.7685Y-3.002
X2.7917Y-3.3012
X2.7953Y-3.2531
X2.8051Y-2.8642
X2.8071Y-3.2008
X2.8083Y-3.2791
X2.8118Y-3.5866
X2.8138Y-2.9563
X2.8361Y-2.838
X2.8425Y-3.0256
X2.8642Y-3.002
X2.889Y-3.2642
X2.8921Y-3.0819
X2.9012Y-3.5866
X2.9134Y-3.2394
X2.9393Y-3.224
X2.9433Y-3.1957
X2.9774Y-2.813
X3.0248Y-2.8335
X3.0295Y-2.9222
X3.0433Y-3.5685
X3.0724Y-3.2386
X5.6181Y-2.0866
X5.6181Y-3.7402
X5.6299Y-2.0433
X5.6299Y-2.1299
X5.6299Y-3.6969
X5.6299Y-3.7835
X5.6654Y-2.0079
X5.6654Y-2.1654
X5.6654Y-3.6614
X5.6654Y-3.8189
X5.7087Y-1.9961
X5.7087Y-2.1772
X5.7087Y-3.6496
X5.7087Y-3.8307
X5.752Y-2.0079
X5.752Y-2.1654
X5.752Y-3.6614
X5.752Y-3.8189
X5.7874Y-2.0433
X5.7874Y-2.1299
X5.7874Y-3.6969
X5.7874Y-3.7835
X5.7992Y-2.0866
X5.7992Y-3.7402
T3
X4.9685Y-3.4634
X4.9685Y-2.5634
X4.6685Y-2.6634
X4.5685Y-2.7634
X4.5685Y-3.4634
X4.3685Y-3.0634
X4.3685Y-2.8634
X4.4685Y-3.3634
X4.9685Y-2.6634
X4.4685Y-2.3634
X5.1685Y-3.1634
X4.3685Y-2.6634
X4.8685Y-3.2634
X5.0685Y-2.9634
X5.0685Y-2.3634
X4.3685Y-3.1634
X4.6685Y-2.4634
X4.6685Y-3.4634
X4.2685Y-3.3634
X4.7685Y-3.3634
X4.5685Y-2.4634
X4.9685Y-2.9634
X5.1685Y-2.7634
X5.0685Y-2.8634
X4.7685Y-2.6634
X4.2685Y-3.2634
X4.7685Y-3.0634
X5.0685Y-3.4634
X4.5685Y-2.9634
X4.3685Y-2.4634
X5.1685Y-3.0634
X4.3685Y-2.5634
X4.7685Y-2.4634
X4.2685Y-2.6634
X4.9685Y-3.2634
X4.3685Y-3.3634
X5.1685Y-2.3634
X4.5685Y-2.3634
X4.8685Y-2.8634
X4.7685Y-2.9634
X4.3685Y-3.4634
X4.4685Y-3.2634
X4.9685Y-3.0634
X4.9685Y-3.1634
X5.1685Y-2.5634
X4.8685Y-3.0634
X5.1685Y-2.4634
X4.3685Y-2.7634
X4.8685Y-2.3634
X4.6685Y-3.1634
X4.4685Y-2.6634
X4.2685Y-2.7634
X4.6685Y-3.2634
X4.4685Y-3.0634
X4.5685Y-3.3634
X4.4685Y-2.8634
X5.0685Y-3.2634
X4.8685Y-2.5634
X4.3685Y-2.3634
X5.0685Y-3.1634
X4.6685Y-2.8634
X4.5685Y-2.5634
X4.4685Y-2.7634
X4.4685Y-3.1634
X4.5685Y-3.1634
X4.8685Y-2.9634
X4.2685Y-2.3634
X4.8685Y-3.3634
X4.9685Y-2.4634
X4.3685Y-2.9634
X4.5685Y-3.0634
X5.0685Y-2.6634
X4.6685Y-2.5634
X4.6685Y-2.3634
X4.4685Y-2.9634
X4.6685Y-3.0634
X5.0685Y-2.7634
X4.6685Y-3.3634
X5.0685Y-2.5634
X4.8685Y-2.4634
X4.6685Y-2.7634
X4.8685Y-2.6634
X5.1685Y-2.8634
X4.7685Y-2.7634
X4.2685Y-2.8634
X4.7685Y-3.1634
X5.1685Y-3.3634
X5.1685Y-2.9634
X4.2685Y-3.4634
X4.7685Y-2.5634
X5.1685Y-3.2634
X4.9685Y-2.3634
X4.7685Y-2.3634
X4.9685Y-2.8634
X4.4685Y-2.5634
X4.7685Y-2.8634
X4.2685Y-3.0634
X4.8685Y-3.1634
X4.2685Y-2.4634
X5.0685Y-3.3634
X4.3685Y-3.2634
X4.2685Y-2.5634
X4.5685Y-3.2634
X4.4685Y-3.4634
X4.5685Y-2.8634
X5.0685Y-2.4634
X4.4685Y-2.4634
X4.2685Y-2.9634
X4.2685Y-3.1634
X4.9685Y-3.3634
X4.8685Y-2.7634
X4.5685Y-2.6634
X4.7685Y-3.4634
X4.9685Y-2.7634
X5.1685Y-3.4634
X5.1685Y-2.6634
X5.0685Y-3.0634
X4.8685Y-3.4634
X4.7685Y-3.2634
X4.6685Y-2.9634
T4
X2.135Y-2.818
X2.135Y-3.0088
T5
X4.0685Y-3.7634
X5.0685Y-3.6634
X3.2685Y-3.7634
X3.5685Y-3.6634
X5.1685Y-2.1634
X4.3685Y-3.6634
X4.2685Y-3.7634
X3.9685Y-3.7634
X4.0685Y-2.0634
X4.0685Y-3.6634
X3.7685Y-2.0634
X3.4685Y-2.0634
X3.4685Y-3.6634
X2.7685Y-3.6634
X2.7685Y-3.7634
X2.8685Y-3.6634
X2.8685Y-3.7634
X2.9685Y-3.6634
X2.9685Y-3.7634
X3.0685Y-3.6634
X3.0685Y-3.7634
X4.3685Y-2.1634
X4.8685Y-3.7634
X3.0685Y-2.2634
X3.0685Y-2.3634
X3.0685Y-2.4634
X3.0685Y-2.5634
X3.6685Y-3.7634
X3.2685Y-2.0634
X5.1685Y-3.6634
X3.5685Y-2.1634
X3.3685Y-3.6634
X4.9685Y-3.6634
X3.9685Y-3.6634
X3.6685Y-2.0634
X3.7685Y-3.6634
X4.4685Y-3.7634
X4.6685Y-3.6634
X4.5685Y-2.0634
X3.8685Y-3.7634
X3.3685Y-3.7634
X4.6685Y-3.7634
X5.0685Y-3.7634
X4.5685Y-3.7634
X5.1685Y-3.7634
X5.1685Y-2.0634
X3.4685Y-3.7634
X4.8685Y-2.0634
X3.4685Y-2.1634
X3.8685Y-2.1634
X3.6685Y-2.1634
X4.7685Y-3.6634
X2.7685Y-3.3634
X2.7685Y-3.4634
X2.8685Y-3.3634
X2.8685Y-3.4634
X2.9685Y-3.3634
X2.9685Y-3.4634
X3.0685Y-3.3634
X3.0685Y-3.4634
X4.5685Y-2.1634
X3.5685Y-2.0634
X4.9685Y-3.7634
X3.6685Y-3.6634
X3.8685Y-2.0634
X4.4685Y-2.0634
X3.7685Y-3.7634
X4.1685Y-2.1634
X3.9685Y-2.1634
X3.8685Y-3.6634
X4.1685Y-3.6634
X4.9685Y-2.1634
X4.2685Y-2.0634
X4.5685Y-3.6634
X4.4685Y-2.1634
X4.8685Y-2.1634
X4.0685Y-2.1634
X3.0685Y-2.7634
X3.0685Y-2.8634
X3.0685Y-2.9634
X3.0685Y-3.0634
X4.1685Y-2.0634
X4.3685Y-3.7634
X4.1685Y-3.7634
X4.9685Y-2.0634
X3.2685Y-3.6634
X4.7685Y-2.1634
X4.2685Y-2.1634
X3.9685Y-2.0634
X2.7685Y-2.0634
X2.8685Y-2.0634
X2.9685Y-2.0634
X3.0685Y-2.0634
X3.3685Y-2.1634
X5.0685Y-2.0634
X3.3685Y-2.0634
X3.7685Y-2.1634
X4.6685Y-2.1634
X5.0685Y-2.1634
X3.5685Y-3.7634
X4.3685Y-2.0634
X4.6685Y-2.0634
X4.4685Y-3.6634
X4.7685Y-2.0634
X4.8685Y-3.6634
X4.7685Y-3.7634
X2.2685Y-3.6634
X2.2685Y-3.7634
X2.3685Y-3.6634
X2.3685Y-3.7634
X2.4685Y-3.6634
X2.4685Y-3.7634
X2.5685Y-3.6634
X2.5685Y-3.7634
X4.2685Y-3.6634
X2.2685Y-2.0634
X2.3685Y-2.0634
X2.4685Y-2.0634
X2.5685Y-2.0634
X3.2685Y-2.1634
T2
X2.0079Y-2.7707G85X2.0472Y-2.7707
G05
X2.0079Y-3.0561G85X2.0472Y-3.0561
G05
T0
M30
