G04 #@! TF.GenerationSoftware,KiCad,Pcbnew,(5.0.0-rc2-dev-222-g3b0a758)*
G04 #@! TF.CreationDate,2018-03-21T23:14:10+01:00*
G04 #@! TF.ProjectId,Geckonator Dev Edition,4765636B6F6E61746F72204465762045,rev?*
G04 #@! TF.SameCoordinates,Original*
G04 #@! TF.FileFunction,Legend,Bot*
G04 #@! TF.FilePolarity,Positive*
%FSLAX46Y46*%
G04 Gerber Fmt 4.6, Leading zero omitted, Abs format (unit mm)*
G04 Created by KiCad (PCBNEW (5.0.0-rc2-dev-222-g3b0a758)) date Wednesday, 21 March 2018 at 23:14:10*
%MOMM*%
%LPD*%
G01*
G04 APERTURE LIST*
%ADD10C,0.500000*%
%ADD11C,0.200000*%
%ADD12C,0.700000*%
%ADD13C,0.375000*%
%ADD14C,0.250000*%
%ADD15C,0.010000*%
G04 APERTURE END LIST*
D10*
X83020000Y-52410000D02*
X131280000Y-52410000D01*
X83020000Y-54950000D02*
X131280000Y-54950000D01*
X83020000Y-93050000D02*
X131280000Y-93050000D01*
X83020000Y-95590000D02*
X131280000Y-95590000D01*
D11*
X138453571Y-67142857D02*
X136953571Y-67142857D01*
X136953571Y-67500000D01*
X137025000Y-67714285D01*
X137167857Y-67857142D01*
X137310714Y-67928571D01*
X137596428Y-68000000D01*
X137810714Y-68000000D01*
X138096428Y-67928571D01*
X138239285Y-67857142D01*
X138382142Y-67714285D01*
X138453571Y-67500000D01*
X138453571Y-67142857D01*
X138382142Y-69214285D02*
X138453571Y-69071428D01*
X138453571Y-68785714D01*
X138382142Y-68642857D01*
X138239285Y-68571428D01*
X137667857Y-68571428D01*
X137525000Y-68642857D01*
X137453571Y-68785714D01*
X137453571Y-69071428D01*
X137525000Y-69214285D01*
X137667857Y-69285714D01*
X137810714Y-69285714D01*
X137953571Y-68571428D01*
X138382142Y-69857142D02*
X138453571Y-70000000D01*
X138453571Y-70285714D01*
X138382142Y-70428571D01*
X138239285Y-70500000D01*
X138167857Y-70500000D01*
X138025000Y-70428571D01*
X137953571Y-70285714D01*
X137953571Y-70071428D01*
X137882142Y-69928571D01*
X137739285Y-69857142D01*
X137667857Y-69857142D01*
X137525000Y-69928571D01*
X137453571Y-70071428D01*
X137453571Y-70285714D01*
X137525000Y-70428571D01*
X138453571Y-71142857D02*
X137453571Y-71142857D01*
X136953571Y-71142857D02*
X137025000Y-71071428D01*
X137096428Y-71142857D01*
X137025000Y-71214285D01*
X136953571Y-71142857D01*
X137096428Y-71142857D01*
X137453571Y-72500000D02*
X138667857Y-72500000D01*
X138810714Y-72428571D01*
X138882142Y-72357142D01*
X138953571Y-72214285D01*
X138953571Y-72000000D01*
X138882142Y-71857142D01*
X138382142Y-72500000D02*
X138453571Y-72357142D01*
X138453571Y-72071428D01*
X138382142Y-71928571D01*
X138310714Y-71857142D01*
X138167857Y-71785714D01*
X137739285Y-71785714D01*
X137596428Y-71857142D01*
X137525000Y-71928571D01*
X137453571Y-72071428D01*
X137453571Y-72357142D01*
X137525000Y-72500000D01*
X137453571Y-73214285D02*
X138453571Y-73214285D01*
X137596428Y-73214285D02*
X137525000Y-73285714D01*
X137453571Y-73428571D01*
X137453571Y-73642857D01*
X137525000Y-73785714D01*
X137667857Y-73857142D01*
X138453571Y-73857142D01*
X138382142Y-75142857D02*
X138453571Y-75000000D01*
X138453571Y-74714285D01*
X138382142Y-74571428D01*
X138239285Y-74500000D01*
X137667857Y-74500000D01*
X137525000Y-74571428D01*
X137453571Y-74714285D01*
X137453571Y-75000000D01*
X137525000Y-75142857D01*
X137667857Y-75214285D01*
X137810714Y-75214285D01*
X137953571Y-74500000D01*
X138453571Y-76500000D02*
X136953571Y-76500000D01*
X138382142Y-76500000D02*
X138453571Y-76357142D01*
X138453571Y-76071428D01*
X138382142Y-75928571D01*
X138310714Y-75857142D01*
X138167857Y-75785714D01*
X137739285Y-75785714D01*
X137596428Y-75857142D01*
X137525000Y-75928571D01*
X137453571Y-76071428D01*
X137453571Y-76357142D01*
X137525000Y-76500000D01*
X138453571Y-78357142D02*
X136953571Y-78357142D01*
X137525000Y-78357142D02*
X137453571Y-78500000D01*
X137453571Y-78785714D01*
X137525000Y-78928571D01*
X137596428Y-79000000D01*
X137739285Y-79071428D01*
X138167857Y-79071428D01*
X138310714Y-79000000D01*
X138382142Y-78928571D01*
X138453571Y-78785714D01*
X138453571Y-78500000D01*
X138382142Y-78357142D01*
X137453571Y-79571428D02*
X138453571Y-79928571D01*
X137453571Y-80285714D02*
X138453571Y-79928571D01*
X138810714Y-79785714D01*
X138882142Y-79714285D01*
X138953571Y-79571428D01*
X138310714Y-80857142D02*
X138382142Y-80928571D01*
X138453571Y-80857142D01*
X138382142Y-80785714D01*
X138310714Y-80857142D01*
X138453571Y-80857142D01*
X137525000Y-80857142D02*
X137596428Y-80928571D01*
X137667857Y-80857142D01*
X137596428Y-80785714D01*
X137525000Y-80857142D01*
X137667857Y-80857142D01*
X139403571Y-64535714D02*
X139403571Y-65392857D01*
X140903571Y-64964285D02*
X139403571Y-64964285D01*
X140903571Y-65892857D02*
X139403571Y-65892857D01*
X140903571Y-66535714D02*
X140117857Y-66535714D01*
X139975000Y-66464285D01*
X139903571Y-66321428D01*
X139903571Y-66107142D01*
X139975000Y-65964285D01*
X140046428Y-65892857D01*
X140903571Y-67464285D02*
X140832142Y-67321428D01*
X140760714Y-67250000D01*
X140617857Y-67178571D01*
X140189285Y-67178571D01*
X140046428Y-67250000D01*
X139975000Y-67321428D01*
X139903571Y-67464285D01*
X139903571Y-67678571D01*
X139975000Y-67821428D01*
X140046428Y-67892857D01*
X140189285Y-67964285D01*
X140617857Y-67964285D01*
X140760714Y-67892857D01*
X140832142Y-67821428D01*
X140903571Y-67678571D01*
X140903571Y-67464285D01*
X140903571Y-68607142D02*
X139903571Y-68607142D01*
X140046428Y-68607142D02*
X139975000Y-68678571D01*
X139903571Y-68821428D01*
X139903571Y-69035714D01*
X139975000Y-69178571D01*
X140117857Y-69250000D01*
X140903571Y-69250000D01*
X140117857Y-69250000D02*
X139975000Y-69321428D01*
X139903571Y-69464285D01*
X139903571Y-69678571D01*
X139975000Y-69821428D01*
X140117857Y-69892857D01*
X140903571Y-69892857D01*
X140903571Y-71250000D02*
X140117857Y-71250000D01*
X139975000Y-71178571D01*
X139903571Y-71035714D01*
X139903571Y-70750000D01*
X139975000Y-70607142D01*
X140832142Y-71250000D02*
X140903571Y-71107142D01*
X140903571Y-70750000D01*
X140832142Y-70607142D01*
X140689285Y-70535714D01*
X140546428Y-70535714D01*
X140403571Y-70607142D01*
X140332142Y-70750000D01*
X140332142Y-71107142D01*
X140260714Y-71250000D01*
X140832142Y-71892857D02*
X140903571Y-72035714D01*
X140903571Y-72321428D01*
X140832142Y-72464285D01*
X140689285Y-72535714D01*
X140617857Y-72535714D01*
X140475000Y-72464285D01*
X140403571Y-72321428D01*
X140403571Y-72107142D01*
X140332142Y-71964285D01*
X140189285Y-71892857D01*
X140117857Y-71892857D01*
X139975000Y-71964285D01*
X139903571Y-72107142D01*
X139903571Y-72321428D01*
X139975000Y-72464285D01*
X140117857Y-74821428D02*
X140117857Y-74321428D01*
X140903571Y-74321428D02*
X139403571Y-74321428D01*
X139403571Y-75035714D01*
X140903571Y-75821428D02*
X140832142Y-75678571D01*
X140689285Y-75607142D01*
X139403571Y-75607142D01*
X139903571Y-77035714D02*
X140903571Y-77035714D01*
X139903571Y-76392857D02*
X140689285Y-76392857D01*
X140832142Y-76464285D01*
X140903571Y-76607142D01*
X140903571Y-76821428D01*
X140832142Y-76964285D01*
X140760714Y-77035714D01*
X140903571Y-77750000D02*
X139903571Y-77750000D01*
X140046428Y-77750000D02*
X139975000Y-77821428D01*
X139903571Y-77964285D01*
X139903571Y-78178571D01*
X139975000Y-78321428D01*
X140117857Y-78392857D01*
X140903571Y-78392857D01*
X140117857Y-78392857D02*
X139975000Y-78464285D01*
X139903571Y-78607142D01*
X139903571Y-78821428D01*
X139975000Y-78964285D01*
X140117857Y-79035714D01*
X140903571Y-79035714D01*
X140903571Y-79750000D02*
X139903571Y-79750000D01*
X140046428Y-79750000D02*
X139975000Y-79821428D01*
X139903571Y-79964285D01*
X139903571Y-80178571D01*
X139975000Y-80321428D01*
X140117857Y-80392857D01*
X140903571Y-80392857D01*
X140117857Y-80392857D02*
X139975000Y-80464285D01*
X139903571Y-80607142D01*
X139903571Y-80821428D01*
X139975000Y-80964285D01*
X140117857Y-81035714D01*
X140903571Y-81035714D01*
X140832142Y-82321428D02*
X140903571Y-82178571D01*
X140903571Y-81892857D01*
X140832142Y-81749999D01*
X140689285Y-81678571D01*
X140117857Y-81678571D01*
X139975000Y-81749999D01*
X139903571Y-81892857D01*
X139903571Y-82178571D01*
X139975000Y-82321428D01*
X140117857Y-82392857D01*
X140260714Y-82392857D01*
X140403571Y-81678571D01*
X140903571Y-83035714D02*
X139903571Y-83035714D01*
X140189285Y-83035714D02*
X140046428Y-83107142D01*
X139975000Y-83178571D01*
X139903571Y-83321428D01*
X139903571Y-83464285D01*
X145904761Y-57714285D02*
X143904761Y-57714285D01*
X145904761Y-58571428D02*
X144857142Y-58571428D01*
X144666666Y-58476190D01*
X144571428Y-58285714D01*
X144571428Y-58000000D01*
X144666666Y-57809523D01*
X144761904Y-57714285D01*
X144571428Y-59238095D02*
X144571428Y-60000000D01*
X143904761Y-59523809D02*
X145619047Y-59523809D01*
X145809523Y-59619047D01*
X145904761Y-59809523D01*
X145904761Y-60000000D01*
X144571428Y-60380952D02*
X144571428Y-61142857D01*
X143904761Y-60666666D02*
X145619047Y-60666666D01*
X145809523Y-60761904D01*
X145904761Y-60952380D01*
X145904761Y-61142857D01*
X144571428Y-61809523D02*
X146571428Y-61809523D01*
X144666666Y-61809523D02*
X144571428Y-62000000D01*
X144571428Y-62380952D01*
X144666666Y-62571428D01*
X144761904Y-62666666D01*
X144952380Y-62761904D01*
X145523809Y-62761904D01*
X145714285Y-62666666D01*
X145809523Y-62571428D01*
X145904761Y-62380952D01*
X145904761Y-62000000D01*
X145809523Y-61809523D01*
X145809523Y-63523809D02*
X145904761Y-63714285D01*
X145904761Y-64095238D01*
X145809523Y-64285714D01*
X145619047Y-64380952D01*
X145523809Y-64380952D01*
X145333333Y-64285714D01*
X145238095Y-64095238D01*
X145238095Y-63809523D01*
X145142857Y-63619047D01*
X144952380Y-63523809D01*
X144857142Y-63523809D01*
X144666666Y-63619047D01*
X144571428Y-63809523D01*
X144571428Y-64095238D01*
X144666666Y-64285714D01*
X145714285Y-65238095D02*
X145809523Y-65333333D01*
X145904761Y-65238095D01*
X145809523Y-65142857D01*
X145714285Y-65238095D01*
X145904761Y-65238095D01*
X144666666Y-65238095D02*
X144761904Y-65333333D01*
X144857142Y-65238095D01*
X144761904Y-65142857D01*
X144666666Y-65238095D01*
X144857142Y-65238095D01*
X143809523Y-67619047D02*
X146380952Y-65904761D01*
X143809523Y-69714285D02*
X146380952Y-68000000D01*
X144571428Y-71238095D02*
X146190476Y-71238095D01*
X146380952Y-71142857D01*
X146476190Y-71047619D01*
X146571428Y-70857142D01*
X146571428Y-70571428D01*
X146476190Y-70380952D01*
X145809523Y-71238095D02*
X145904761Y-71047619D01*
X145904761Y-70666666D01*
X145809523Y-70476190D01*
X145714285Y-70380952D01*
X145523809Y-70285714D01*
X144952380Y-70285714D01*
X144761904Y-70380952D01*
X144666666Y-70476190D01*
X144571428Y-70666666D01*
X144571428Y-71047619D01*
X144666666Y-71238095D01*
X145809523Y-72952380D02*
X145904761Y-72761904D01*
X145904761Y-72380952D01*
X145809523Y-72190476D01*
X145619047Y-72095238D01*
X144857142Y-72095238D01*
X144666666Y-72190476D01*
X144571428Y-72380952D01*
X144571428Y-72761904D01*
X144666666Y-72952380D01*
X144857142Y-73047619D01*
X145047619Y-73047619D01*
X145238095Y-72095238D01*
X145809523Y-74761904D02*
X145904761Y-74571428D01*
X145904761Y-74190476D01*
X145809523Y-74000000D01*
X145714285Y-73904761D01*
X145523809Y-73809523D01*
X144952380Y-73809523D01*
X144761904Y-73904761D01*
X144666666Y-74000000D01*
X144571428Y-74190476D01*
X144571428Y-74571428D01*
X144666666Y-74761904D01*
X145904761Y-75619047D02*
X143904761Y-75619047D01*
X145142857Y-75809523D02*
X145904761Y-76380952D01*
X144571428Y-76380952D02*
X145333333Y-75619047D01*
X145904761Y-77523809D02*
X145809523Y-77333333D01*
X145714285Y-77238095D01*
X145523809Y-77142857D01*
X144952380Y-77142857D01*
X144761904Y-77238095D01*
X144666666Y-77333333D01*
X144571428Y-77523809D01*
X144571428Y-77809523D01*
X144666666Y-78000000D01*
X144761904Y-78095238D01*
X144952380Y-78190476D01*
X145523809Y-78190476D01*
X145714285Y-78095238D01*
X145809523Y-78000000D01*
X145904761Y-77809523D01*
X145904761Y-77523809D01*
X144571428Y-79047619D02*
X145904761Y-79047619D01*
X144761904Y-79047619D02*
X144666666Y-79142857D01*
X144571428Y-79333333D01*
X144571428Y-79619047D01*
X144666666Y-79809523D01*
X144857142Y-79904761D01*
X145904761Y-79904761D01*
X145904761Y-81714285D02*
X144857142Y-81714285D01*
X144666666Y-81619047D01*
X144571428Y-81428571D01*
X144571428Y-81047619D01*
X144666666Y-80857142D01*
X145809523Y-81714285D02*
X145904761Y-81523809D01*
X145904761Y-81047619D01*
X145809523Y-80857142D01*
X145619047Y-80761904D01*
X145428571Y-80761904D01*
X145238095Y-80857142D01*
X145142857Y-81047619D01*
X145142857Y-81523809D01*
X145047619Y-81714285D01*
X144571428Y-82380952D02*
X144571428Y-83142857D01*
X143904761Y-82666666D02*
X145619047Y-82666666D01*
X145809523Y-82761904D01*
X145904761Y-82952380D01*
X145904761Y-83142857D01*
X145904761Y-84095238D02*
X145809523Y-83904761D01*
X145714285Y-83809523D01*
X145523809Y-83714285D01*
X144952380Y-83714285D01*
X144761904Y-83809523D01*
X144666666Y-83904761D01*
X144571428Y-84095238D01*
X144571428Y-84380952D01*
X144666666Y-84571428D01*
X144761904Y-84666666D01*
X144952380Y-84761904D01*
X145523809Y-84761904D01*
X145714285Y-84666666D01*
X145809523Y-84571428D01*
X145904761Y-84380952D01*
X145904761Y-84095238D01*
X145904761Y-85619047D02*
X144571428Y-85619047D01*
X144952380Y-85619047D02*
X144761904Y-85714285D01*
X144666666Y-85809523D01*
X144571428Y-86000000D01*
X144571428Y-86190476D01*
X145714285Y-86857142D02*
X145809523Y-86952380D01*
X145904761Y-86857142D01*
X145809523Y-86761904D01*
X145714285Y-86857142D01*
X145904761Y-86857142D01*
X145904761Y-88666666D02*
X143904761Y-88666666D01*
X145809523Y-88666666D02*
X145904761Y-88476190D01*
X145904761Y-88095238D01*
X145809523Y-87904761D01*
X145714285Y-87809523D01*
X145523809Y-87714285D01*
X144952380Y-87714285D01*
X144761904Y-87809523D01*
X144666666Y-87904761D01*
X144571428Y-88095238D01*
X144571428Y-88476190D01*
X144666666Y-88666666D01*
X145904761Y-89619047D02*
X143904761Y-89619047D01*
X145142857Y-89809523D02*
X145904761Y-90380952D01*
X144571428Y-90380952D02*
X145333333Y-89619047D01*
X65327142Y-61928571D02*
X62327142Y-61928571D01*
X62327142Y-62642857D01*
X62470000Y-63071428D01*
X62755714Y-63357142D01*
X63041428Y-63500000D01*
X63612857Y-63642857D01*
X64041428Y-63642857D01*
X64612857Y-63500000D01*
X64898571Y-63357142D01*
X65184285Y-63071428D01*
X65327142Y-62642857D01*
X65327142Y-61928571D01*
X65184285Y-66071428D02*
X65327142Y-65785714D01*
X65327142Y-65214285D01*
X65184285Y-64928571D01*
X64898571Y-64785714D01*
X63755714Y-64785714D01*
X63470000Y-64928571D01*
X63327142Y-65214285D01*
X63327142Y-65785714D01*
X63470000Y-66071428D01*
X63755714Y-66214285D01*
X64041428Y-66214285D01*
X64327142Y-64785714D01*
X63327142Y-67214285D02*
X65327142Y-67928571D01*
X63327142Y-68642857D01*
X63755714Y-72071428D02*
X63755714Y-73071428D01*
X65327142Y-73500000D02*
X65327142Y-72071428D01*
X62327142Y-72071428D01*
X62327142Y-73500000D01*
X65327142Y-76071428D02*
X62327142Y-76071428D01*
X65184285Y-76071428D02*
X65327142Y-75785714D01*
X65327142Y-75214285D01*
X65184285Y-74928571D01*
X65041428Y-74785714D01*
X64755714Y-74642857D01*
X63898571Y-74642857D01*
X63612857Y-74785714D01*
X63470000Y-74928571D01*
X63327142Y-75214285D01*
X63327142Y-75785714D01*
X63470000Y-76071428D01*
X65327142Y-77500000D02*
X63327142Y-77500000D01*
X62327142Y-77500000D02*
X62470000Y-77357142D01*
X62612857Y-77500000D01*
X62470000Y-77642857D01*
X62327142Y-77500000D01*
X62612857Y-77500000D01*
X63327142Y-78500000D02*
X63327142Y-79642857D01*
X62327142Y-78928571D02*
X64898571Y-78928571D01*
X65184285Y-79071428D01*
X65327142Y-79357142D01*
X65327142Y-79642857D01*
X65327142Y-80642857D02*
X63327142Y-80642857D01*
X62327142Y-80642857D02*
X62470000Y-80500000D01*
X62612857Y-80642857D01*
X62470000Y-80785714D01*
X62327142Y-80642857D01*
X62612857Y-80642857D01*
X65327142Y-82500000D02*
X65184285Y-82214285D01*
X65041428Y-82071428D01*
X64755714Y-81928571D01*
X63898571Y-81928571D01*
X63612857Y-82071428D01*
X63470000Y-82214285D01*
X63327142Y-82500000D01*
X63327142Y-82928571D01*
X63470000Y-83214285D01*
X63612857Y-83357142D01*
X63898571Y-83500000D01*
X64755714Y-83500000D01*
X65041428Y-83357142D01*
X65184285Y-83214285D01*
X65327142Y-82928571D01*
X65327142Y-82500000D01*
X63327142Y-84785714D02*
X65327142Y-84785714D01*
X63612857Y-84785714D02*
X63470000Y-84928571D01*
X63327142Y-85214285D01*
X63327142Y-85642857D01*
X63470000Y-85928571D01*
X63755714Y-86071428D01*
X65327142Y-86071428D01*
D12*
X57140000Y-62083333D02*
X56973333Y-61750000D01*
X56973333Y-61250000D01*
X57140000Y-60750000D01*
X57473333Y-60416666D01*
X57806666Y-60250000D01*
X58473333Y-60083333D01*
X58973333Y-60083333D01*
X59640000Y-60250000D01*
X59973333Y-60416666D01*
X60306666Y-60750000D01*
X60473333Y-61250000D01*
X60473333Y-61583333D01*
X60306666Y-62083333D01*
X60140000Y-62250000D01*
X58973333Y-62250000D01*
X58973333Y-61583333D01*
X60306666Y-65083333D02*
X60473333Y-64750000D01*
X60473333Y-64083333D01*
X60306666Y-63750000D01*
X59973333Y-63583333D01*
X58640000Y-63583333D01*
X58306666Y-63750000D01*
X58140000Y-64083333D01*
X58140000Y-64750000D01*
X58306666Y-65083333D01*
X58640000Y-65250000D01*
X58973333Y-65250000D01*
X59306666Y-63583333D01*
X60306666Y-68250000D02*
X60473333Y-67916666D01*
X60473333Y-67250000D01*
X60306666Y-66916666D01*
X60140000Y-66750000D01*
X59806666Y-66583333D01*
X58806666Y-66583333D01*
X58473333Y-66750000D01*
X58306666Y-66916666D01*
X58140000Y-67250000D01*
X58140000Y-67916666D01*
X58306666Y-68250000D01*
X60473333Y-69750000D02*
X56973333Y-69750000D01*
X59140000Y-70083333D02*
X60473333Y-71083333D01*
X58140000Y-71083333D02*
X59473333Y-69750000D01*
X60473333Y-73083333D02*
X60306666Y-72750000D01*
X60140000Y-72583333D01*
X59806666Y-72416666D01*
X58806666Y-72416666D01*
X58473333Y-72583333D01*
X58306666Y-72750000D01*
X58140000Y-73083333D01*
X58140000Y-73583333D01*
X58306666Y-73916666D01*
X58473333Y-74083333D01*
X58806666Y-74250000D01*
X59806666Y-74250000D01*
X60140000Y-74083333D01*
X60306666Y-73916666D01*
X60473333Y-73583333D01*
X60473333Y-73083333D01*
X58140000Y-75750000D02*
X60473333Y-75750000D01*
X58473333Y-75750000D02*
X58306666Y-75916666D01*
X58140000Y-76250000D01*
X58140000Y-76750000D01*
X58306666Y-77083333D01*
X58640000Y-77250000D01*
X60473333Y-77250000D01*
X60473333Y-80416666D02*
X58640000Y-80416666D01*
X58306666Y-80250000D01*
X58140000Y-79916666D01*
X58140000Y-79250000D01*
X58306666Y-78916666D01*
X60306666Y-80416666D02*
X60473333Y-80083333D01*
X60473333Y-79250000D01*
X60306666Y-78916666D01*
X59973333Y-78750000D01*
X59640000Y-78750000D01*
X59306666Y-78916666D01*
X59140000Y-79250000D01*
X59140000Y-80083333D01*
X58973333Y-80416666D01*
X58140000Y-81583333D02*
X58140000Y-82916666D01*
X56973333Y-82083333D02*
X59973333Y-82083333D01*
X60306666Y-82250000D01*
X60473333Y-82583333D01*
X60473333Y-82916666D01*
X60473333Y-84583333D02*
X60306666Y-84250000D01*
X60140000Y-84083333D01*
X59806666Y-83916666D01*
X58806666Y-83916666D01*
X58473333Y-84083333D01*
X58306666Y-84250000D01*
X58140000Y-84583333D01*
X58140000Y-85083333D01*
X58306666Y-85416666D01*
X58473333Y-85583333D01*
X58806666Y-85750000D01*
X59806666Y-85750000D01*
X60140000Y-85583333D01*
X60306666Y-85416666D01*
X60473333Y-85083333D01*
X60473333Y-84583333D01*
X60473333Y-87250000D02*
X58140000Y-87250000D01*
X58806666Y-87250000D02*
X58473333Y-87416666D01*
X58306666Y-87583333D01*
X58140000Y-87916666D01*
X58140000Y-88250000D01*
D13*
X136222321Y-94840000D02*
X136365178Y-94768571D01*
X136579464Y-94768571D01*
X136793750Y-94840000D01*
X136936607Y-94982857D01*
X137008035Y-95125714D01*
X137079464Y-95411428D01*
X137079464Y-95625714D01*
X137008035Y-95911428D01*
X136936607Y-96054285D01*
X136793750Y-96197142D01*
X136579464Y-96268571D01*
X136436607Y-96268571D01*
X136222321Y-96197142D01*
X136150892Y-96125714D01*
X136150892Y-95625714D01*
X136436607Y-95625714D01*
X135508035Y-96268571D02*
X135508035Y-94768571D01*
X134650892Y-96268571D01*
X134650892Y-94768571D01*
X133936607Y-96268571D02*
X133936607Y-94768571D01*
X133579464Y-94768571D01*
X133365178Y-94840000D01*
X133222321Y-94982857D01*
X133150892Y-95125714D01*
X133079464Y-95411428D01*
X133079464Y-95625714D01*
X133150892Y-95911428D01*
X133222321Y-96054285D01*
X133365178Y-96197142D01*
X133579464Y-96268571D01*
X133936607Y-96268571D01*
X136936607Y-92228571D02*
X136436607Y-93728571D01*
X135936607Y-92228571D01*
X134579464Y-93585714D02*
X134650892Y-93657142D01*
X134865178Y-93728571D01*
X135008035Y-93728571D01*
X135222321Y-93657142D01*
X135365178Y-93514285D01*
X135436607Y-93371428D01*
X135508035Y-93085714D01*
X135508035Y-92871428D01*
X135436607Y-92585714D01*
X135365178Y-92442857D01*
X135222321Y-92300000D01*
X135008035Y-92228571D01*
X134865178Y-92228571D01*
X134650892Y-92300000D01*
X134579464Y-92371428D01*
X133079464Y-93585714D02*
X133150892Y-93657142D01*
X133365178Y-93728571D01*
X133508035Y-93728571D01*
X133722321Y-93657142D01*
X133865178Y-93514285D01*
X133936607Y-93371428D01*
X134008035Y-93085714D01*
X134008035Y-92871428D01*
X133936607Y-92585714D01*
X133865178Y-92442857D01*
X133722321Y-92300000D01*
X133508035Y-92228571D01*
X133365178Y-92228571D01*
X133150892Y-92300000D01*
X133079464Y-92371428D01*
X136222321Y-54200000D02*
X136365178Y-54128571D01*
X136579464Y-54128571D01*
X136793750Y-54200000D01*
X136936607Y-54342857D01*
X137008035Y-54485714D01*
X137079464Y-54771428D01*
X137079464Y-54985714D01*
X137008035Y-55271428D01*
X136936607Y-55414285D01*
X136793750Y-55557142D01*
X136579464Y-55628571D01*
X136436607Y-55628571D01*
X136222321Y-55557142D01*
X136150892Y-55485714D01*
X136150892Y-54985714D01*
X136436607Y-54985714D01*
X135508035Y-55628571D02*
X135508035Y-54128571D01*
X134650892Y-55628571D01*
X134650892Y-54128571D01*
X133936607Y-55628571D02*
X133936607Y-54128571D01*
X133579464Y-54128571D01*
X133365178Y-54200000D01*
X133222321Y-54342857D01*
X133150892Y-54485714D01*
X133079464Y-54771428D01*
X133079464Y-54985714D01*
X133150892Y-55271428D01*
X133222321Y-55414285D01*
X133365178Y-55557142D01*
X133579464Y-55628571D01*
X133936607Y-55628571D01*
X136936607Y-51588571D02*
X136436607Y-53088571D01*
X135936607Y-51588571D01*
X134579464Y-52945714D02*
X134650892Y-53017142D01*
X134865178Y-53088571D01*
X135008035Y-53088571D01*
X135222321Y-53017142D01*
X135365178Y-52874285D01*
X135436607Y-52731428D01*
X135508035Y-52445714D01*
X135508035Y-52231428D01*
X135436607Y-51945714D01*
X135365178Y-51802857D01*
X135222321Y-51660000D01*
X135008035Y-51588571D01*
X134865178Y-51588571D01*
X134650892Y-51660000D01*
X134579464Y-51731428D01*
X133079464Y-52945714D02*
X133150892Y-53017142D01*
X133365178Y-53088571D01*
X133508035Y-53088571D01*
X133722321Y-53017142D01*
X133865178Y-52874285D01*
X133936607Y-52731428D01*
X134008035Y-52445714D01*
X134008035Y-52231428D01*
X133936607Y-51945714D01*
X133865178Y-51802857D01*
X133722321Y-51660000D01*
X133508035Y-51588571D01*
X133365178Y-51588571D01*
X133150892Y-51660000D01*
X133079464Y-51731428D01*
D14*
X108477142Y-89852857D02*
X108362857Y-89852857D01*
X108248571Y-89910000D01*
X108191428Y-89967142D01*
X108134285Y-90081428D01*
X108077142Y-90310000D01*
X108077142Y-90595714D01*
X108134285Y-90824285D01*
X108191428Y-90938571D01*
X108248571Y-90995714D01*
X108362857Y-91052857D01*
X108477142Y-91052857D01*
X108591428Y-90995714D01*
X108648571Y-90938571D01*
X108705714Y-90824285D01*
X108762857Y-90595714D01*
X108762857Y-90310000D01*
X108705714Y-90081428D01*
X108648571Y-89967142D01*
X108591428Y-89910000D01*
X108477142Y-89852857D01*
X110617142Y-91052857D02*
X111302857Y-91052857D01*
X110960000Y-91052857D02*
X110960000Y-89852857D01*
X111074285Y-90024285D01*
X111188571Y-90138571D01*
X111302857Y-90195714D01*
X113842857Y-89967142D02*
X113785714Y-89910000D01*
X113671428Y-89852857D01*
X113385714Y-89852857D01*
X113271428Y-89910000D01*
X113214285Y-89967142D01*
X113157142Y-90081428D01*
X113157142Y-90195714D01*
X113214285Y-90367142D01*
X113900000Y-91052857D01*
X113157142Y-91052857D01*
X116440000Y-89852857D02*
X115697142Y-89852857D01*
X116097142Y-90310000D01*
X115925714Y-90310000D01*
X115811428Y-90367142D01*
X115754285Y-90424285D01*
X115697142Y-90538571D01*
X115697142Y-90824285D01*
X115754285Y-90938571D01*
X115811428Y-90995714D01*
X115925714Y-91052857D01*
X116268571Y-91052857D01*
X116382857Y-90995714D01*
X116440000Y-90938571D01*
X118351428Y-90252857D02*
X118351428Y-91052857D01*
X118637142Y-89795714D02*
X118922857Y-90652857D01*
X118180000Y-90652857D01*
X120834285Y-89852857D02*
X121405714Y-89852857D01*
X121462857Y-90424285D01*
X121405714Y-90367142D01*
X121291428Y-90310000D01*
X121005714Y-90310000D01*
X120891428Y-90367142D01*
X120834285Y-90424285D01*
X120777142Y-90538571D01*
X120777142Y-90824285D01*
X120834285Y-90938571D01*
X120891428Y-90995714D01*
X121005714Y-91052857D01*
X121291428Y-91052857D01*
X121405714Y-90995714D01*
X121462857Y-90938571D01*
X123431428Y-89852857D02*
X123660000Y-89852857D01*
X123774285Y-89910000D01*
X123831428Y-89967142D01*
X123945714Y-90138571D01*
X124002857Y-90367142D01*
X124002857Y-90824285D01*
X123945714Y-90938571D01*
X123888571Y-90995714D01*
X123774285Y-91052857D01*
X123545714Y-91052857D01*
X123431428Y-90995714D01*
X123374285Y-90938571D01*
X123317142Y-90824285D01*
X123317142Y-90538571D01*
X123374285Y-90424285D01*
X123431428Y-90367142D01*
X123545714Y-90310000D01*
X123774285Y-90310000D01*
X123888571Y-90367142D01*
X123945714Y-90424285D01*
X124002857Y-90538571D01*
X126600000Y-89852857D02*
X125800000Y-89852857D01*
X126314285Y-91052857D01*
X128854285Y-90367142D02*
X128968571Y-90310000D01*
X129025714Y-90252857D01*
X129082857Y-90138571D01*
X129082857Y-90081428D01*
X129025714Y-89967142D01*
X128968571Y-89910000D01*
X128854285Y-89852857D01*
X128625714Y-89852857D01*
X128511428Y-89910000D01*
X128454285Y-89967142D01*
X128397142Y-90081428D01*
X128397142Y-90138571D01*
X128454285Y-90252857D01*
X128511428Y-90310000D01*
X128625714Y-90367142D01*
X128854285Y-90367142D01*
X128968571Y-90424285D01*
X129025714Y-90481428D01*
X129082857Y-90595714D01*
X129082857Y-90824285D01*
X129025714Y-90938571D01*
X128968571Y-90995714D01*
X128854285Y-91052857D01*
X128625714Y-91052857D01*
X128511428Y-90995714D01*
X128454285Y-90938571D01*
X128397142Y-90824285D01*
X128397142Y-90595714D01*
X128454285Y-90481428D01*
X128511428Y-90424285D01*
X128625714Y-90367142D01*
X131508571Y-91052857D02*
X131280000Y-91052857D01*
X131165714Y-90995714D01*
X131108571Y-90938571D01*
X130994285Y-90767142D01*
X130937142Y-90538571D01*
X130937142Y-90081428D01*
X130994285Y-89967142D01*
X131051428Y-89910000D01*
X131165714Y-89852857D01*
X131394285Y-89852857D01*
X131508571Y-89910000D01*
X131565714Y-89967142D01*
X131622857Y-90081428D01*
X131622857Y-90367142D01*
X131565714Y-90481428D01*
X131508571Y-90538571D01*
X131394285Y-90595714D01*
X131165714Y-90595714D01*
X131051428Y-90538571D01*
X130994285Y-90481428D01*
X130937142Y-90367142D01*
X133448571Y-88512857D02*
X134020000Y-88512857D01*
X134020000Y-87312857D01*
X134134285Y-85972857D02*
X134134285Y-84772857D01*
X133448571Y-85972857D02*
X133962857Y-85287142D01*
X133448571Y-84772857D02*
X134134285Y-85458571D01*
X133648571Y-82232857D02*
X133648571Y-83090000D01*
X133705714Y-83261428D01*
X133820000Y-83375714D01*
X133991428Y-83432857D01*
X134105714Y-83432857D01*
X133820000Y-80892857D02*
X133820000Y-79692857D01*
X134162857Y-78352857D02*
X134162857Y-77152857D01*
X134162857Y-77724285D02*
X133477142Y-77724285D01*
X133477142Y-78352857D02*
X133477142Y-77152857D01*
X133505714Y-74670000D02*
X133620000Y-74612857D01*
X133791428Y-74612857D01*
X133962857Y-74670000D01*
X134077142Y-74784285D01*
X134134285Y-74898571D01*
X134191428Y-75127142D01*
X134191428Y-75298571D01*
X134134285Y-75527142D01*
X134077142Y-75641428D01*
X133962857Y-75755714D01*
X133791428Y-75812857D01*
X133677142Y-75812857D01*
X133505714Y-75755714D01*
X133448571Y-75698571D01*
X133448571Y-75298571D01*
X133677142Y-75298571D01*
X133648571Y-72644285D02*
X134048571Y-72644285D01*
X134048571Y-73272857D02*
X134048571Y-72072857D01*
X133477142Y-72072857D01*
X134077142Y-70104285D02*
X133677142Y-70104285D01*
X133505714Y-70732857D02*
X134077142Y-70732857D01*
X134077142Y-69532857D01*
X133505714Y-69532857D01*
X134134285Y-68192857D02*
X134134285Y-66992857D01*
X133848571Y-66992857D01*
X133677142Y-67050000D01*
X133562857Y-67164285D01*
X133505714Y-67278571D01*
X133448571Y-67507142D01*
X133448571Y-67678571D01*
X133505714Y-67907142D01*
X133562857Y-68021428D01*
X133677142Y-68135714D01*
X133848571Y-68192857D01*
X134134285Y-68192857D01*
X133448571Y-65538571D02*
X133505714Y-65595714D01*
X133677142Y-65652857D01*
X133791428Y-65652857D01*
X133962857Y-65595714D01*
X134077142Y-65481428D01*
X134134285Y-65367142D01*
X134191428Y-65138571D01*
X134191428Y-64967142D01*
X134134285Y-64738571D01*
X134077142Y-64624285D01*
X133962857Y-64510000D01*
X133791428Y-64452857D01*
X133677142Y-64452857D01*
X133505714Y-64510000D01*
X133448571Y-64567142D01*
X133734285Y-62484285D02*
X133562857Y-62541428D01*
X133505714Y-62598571D01*
X133448571Y-62712857D01*
X133448571Y-62884285D01*
X133505714Y-62998571D01*
X133562857Y-63055714D01*
X133677142Y-63112857D01*
X134134285Y-63112857D01*
X134134285Y-61912857D01*
X133734285Y-61912857D01*
X133620000Y-61970000D01*
X133562857Y-62027142D01*
X133505714Y-62141428D01*
X133505714Y-62255714D01*
X133562857Y-62370000D01*
X133620000Y-62427142D01*
X133734285Y-62484285D01*
X134134285Y-62484285D01*
X134105714Y-60230000D02*
X133534285Y-60230000D01*
X134220000Y-60572857D02*
X133820000Y-59372857D01*
X133420000Y-60572857D01*
X131508571Y-58032857D02*
X131280000Y-58032857D01*
X131165714Y-57975714D01*
X131108571Y-57918571D01*
X130994285Y-57747142D01*
X130937142Y-57518571D01*
X130937142Y-57061428D01*
X130994285Y-56947142D01*
X131051428Y-56890000D01*
X131165714Y-56832857D01*
X131394285Y-56832857D01*
X131508571Y-56890000D01*
X131565714Y-56947142D01*
X131622857Y-57061428D01*
X131622857Y-57347142D01*
X131565714Y-57461428D01*
X131508571Y-57518571D01*
X131394285Y-57575714D01*
X131165714Y-57575714D01*
X131051428Y-57518571D01*
X130994285Y-57461428D01*
X130937142Y-57347142D01*
X128854285Y-57347142D02*
X128968571Y-57290000D01*
X129025714Y-57232857D01*
X129082857Y-57118571D01*
X129082857Y-57061428D01*
X129025714Y-56947142D01*
X128968571Y-56890000D01*
X128854285Y-56832857D01*
X128625714Y-56832857D01*
X128511428Y-56890000D01*
X128454285Y-56947142D01*
X128397142Y-57061428D01*
X128397142Y-57118571D01*
X128454285Y-57232857D01*
X128511428Y-57290000D01*
X128625714Y-57347142D01*
X128854285Y-57347142D01*
X128968571Y-57404285D01*
X129025714Y-57461428D01*
X129082857Y-57575714D01*
X129082857Y-57804285D01*
X129025714Y-57918571D01*
X128968571Y-57975714D01*
X128854285Y-58032857D01*
X128625714Y-58032857D01*
X128511428Y-57975714D01*
X128454285Y-57918571D01*
X128397142Y-57804285D01*
X128397142Y-57575714D01*
X128454285Y-57461428D01*
X128511428Y-57404285D01*
X128625714Y-57347142D01*
X126600000Y-56832857D02*
X125800000Y-56832857D01*
X126314285Y-58032857D01*
X123431428Y-56832857D02*
X123660000Y-56832857D01*
X123774285Y-56890000D01*
X123831428Y-56947142D01*
X123945714Y-57118571D01*
X124002857Y-57347142D01*
X124002857Y-57804285D01*
X123945714Y-57918571D01*
X123888571Y-57975714D01*
X123774285Y-58032857D01*
X123545714Y-58032857D01*
X123431428Y-57975714D01*
X123374285Y-57918571D01*
X123317142Y-57804285D01*
X123317142Y-57518571D01*
X123374285Y-57404285D01*
X123431428Y-57347142D01*
X123545714Y-57290000D01*
X123774285Y-57290000D01*
X123888571Y-57347142D01*
X123945714Y-57404285D01*
X124002857Y-57518571D01*
X120834285Y-56832857D02*
X121405714Y-56832857D01*
X121462857Y-57404285D01*
X121405714Y-57347142D01*
X121291428Y-57290000D01*
X121005714Y-57290000D01*
X120891428Y-57347142D01*
X120834285Y-57404285D01*
X120777142Y-57518571D01*
X120777142Y-57804285D01*
X120834285Y-57918571D01*
X120891428Y-57975714D01*
X121005714Y-58032857D01*
X121291428Y-58032857D01*
X121405714Y-57975714D01*
X121462857Y-57918571D01*
X118351428Y-57232857D02*
X118351428Y-58032857D01*
X118637142Y-56775714D02*
X118922857Y-57632857D01*
X118180000Y-57632857D01*
X116440000Y-56832857D02*
X115697142Y-56832857D01*
X116097142Y-57290000D01*
X115925714Y-57290000D01*
X115811428Y-57347142D01*
X115754285Y-57404285D01*
X115697142Y-57518571D01*
X115697142Y-57804285D01*
X115754285Y-57918571D01*
X115811428Y-57975714D01*
X115925714Y-58032857D01*
X116268571Y-58032857D01*
X116382857Y-57975714D01*
X116440000Y-57918571D01*
X113842857Y-56947142D02*
X113785714Y-56890000D01*
X113671428Y-56832857D01*
X113385714Y-56832857D01*
X113271428Y-56890000D01*
X113214285Y-56947142D01*
X113157142Y-57061428D01*
X113157142Y-57175714D01*
X113214285Y-57347142D01*
X113900000Y-58032857D01*
X113157142Y-58032857D01*
X110617142Y-58032857D02*
X111302857Y-58032857D01*
X110960000Y-58032857D02*
X110960000Y-56832857D01*
X111074285Y-57004285D01*
X111188571Y-57118571D01*
X111302857Y-57175714D01*
X108477142Y-56832857D02*
X108362857Y-56832857D01*
X108248571Y-56890000D01*
X108191428Y-56947142D01*
X108134285Y-57061428D01*
X108077142Y-57290000D01*
X108077142Y-57575714D01*
X108134285Y-57804285D01*
X108191428Y-57918571D01*
X108248571Y-57975714D01*
X108362857Y-58032857D01*
X108477142Y-58032857D01*
X108591428Y-57975714D01*
X108648571Y-57918571D01*
X108705714Y-57804285D01*
X108762857Y-57575714D01*
X108762857Y-57290000D01*
X108705714Y-57061428D01*
X108648571Y-56947142D01*
X108591428Y-56890000D01*
X108477142Y-56832857D01*
D15*
G36*
X67821293Y-64160694D02*
X67931746Y-64384505D01*
X68091218Y-64642278D01*
X68279566Y-64905847D01*
X68476651Y-65147042D01*
X68662329Y-65337693D01*
X68816460Y-65449633D01*
X68817616Y-65450185D01*
X68987020Y-65509658D01*
X69230388Y-65570273D01*
X69495470Y-65619043D01*
X69499243Y-65619603D01*
X70095014Y-65743308D01*
X70637663Y-65926214D01*
X71111065Y-66159654D01*
X71499092Y-66434959D01*
X71785618Y-66743460D01*
X71882220Y-66900512D01*
X71942993Y-67038762D01*
X71936464Y-67126174D01*
X71882395Y-67198156D01*
X71823643Y-67322960D01*
X71799743Y-67496237D01*
X71810043Y-67669530D01*
X71853894Y-67794384D01*
X71890805Y-67824445D01*
X71968359Y-67791236D01*
X72068959Y-67676746D01*
X72105052Y-67620557D01*
X72194707Y-67486697D01*
X72259578Y-67422243D01*
X72272725Y-67422558D01*
X72291219Y-67500243D01*
X72299570Y-67657197D01*
X72299229Y-67727396D01*
X72316439Y-67980245D01*
X72379442Y-68119900D01*
X72486724Y-68143334D01*
X72504341Y-68137495D01*
X72590679Y-68045939D01*
X72585109Y-67885304D01*
X72510750Y-67713500D01*
X72440789Y-67535943D01*
X72417987Y-67396000D01*
X72421147Y-67300675D01*
X72446533Y-67298336D01*
X72512702Y-67396120D01*
X72541804Y-67443625D01*
X72647032Y-67577967D01*
X72746964Y-67647386D01*
X72763816Y-67650000D01*
X72846409Y-67608021D01*
X72851161Y-67503506D01*
X72784889Y-67368585D01*
X72680213Y-67256009D01*
X72556760Y-67120588D01*
X72412279Y-66916724D01*
X72290295Y-66710481D01*
X72134930Y-66460013D01*
X71947258Y-66214248D01*
X71804750Y-66062366D01*
X71671352Y-65929310D01*
X71600136Y-65837396D01*
X71602656Y-65808500D01*
X71749607Y-65772828D01*
X71969853Y-65676592D01*
X72235489Y-65535961D01*
X72518612Y-65367104D01*
X72791318Y-65186190D01*
X73025702Y-65009389D01*
X73114606Y-64932387D01*
X73523188Y-64497404D01*
X73819945Y-64040335D01*
X74020032Y-63536742D01*
X74051521Y-63421475D01*
X74164850Y-62975215D01*
X74410866Y-63153607D01*
X74647926Y-63288597D01*
X74846129Y-63328043D01*
X74988131Y-63269044D01*
X75002648Y-63252625D01*
X75049481Y-63142866D01*
X75090456Y-62964849D01*
X75099965Y-62900884D01*
X75148106Y-62653781D01*
X75220237Y-62524657D01*
X75325670Y-62505344D01*
X75464712Y-62580937D01*
X75626229Y-62666161D01*
X75751545Y-62673155D01*
X75819219Y-62635100D01*
X75813822Y-62572713D01*
X75748970Y-62465410D01*
X75639681Y-62298615D01*
X75859209Y-62466057D01*
X76072626Y-62597337D01*
X76230074Y-62625917D01*
X76324211Y-62550683D01*
X76329847Y-62537441D01*
X76324474Y-62403016D01*
X76204288Y-62295690D01*
X75980157Y-62224278D01*
X75934557Y-62216652D01*
X75766247Y-62179894D01*
X75666122Y-62135782D01*
X75654000Y-62117356D01*
X75706550Y-62043006D01*
X75835053Y-61951106D01*
X75995787Y-61866613D01*
X76145031Y-61814487D01*
X76195495Y-61808237D01*
X76331200Y-61776065D01*
X76476677Y-61700035D01*
X76582458Y-61610248D01*
X76606500Y-61558174D01*
X76563310Y-61477979D01*
X76515811Y-61430785D01*
X76394153Y-61403806D01*
X76227369Y-61453678D01*
X76056480Y-61563938D01*
X75971500Y-61649250D01*
X75818622Y-61782975D01*
X75646552Y-61861197D01*
X75483669Y-61883219D01*
X75358354Y-61848342D01*
X75298986Y-61755869D01*
X75308892Y-61665539D01*
X75384064Y-61491818D01*
X75440303Y-61396995D01*
X75512423Y-61232888D01*
X75518150Y-61075894D01*
X75457760Y-60972147D01*
X75437716Y-60961826D01*
X75321669Y-60977252D01*
X75212981Y-61093860D01*
X75129841Y-61286296D01*
X75098884Y-61434172D01*
X75012119Y-61709495D01*
X74857920Y-61909813D01*
X74653308Y-62114425D01*
X74497071Y-61875793D01*
X74415086Y-61738559D01*
X74374494Y-61617442D01*
X74368664Y-61467691D01*
X74390966Y-61244558D01*
X74396747Y-61198706D01*
X74426279Y-60536640D01*
X74351187Y-59881556D01*
X74176427Y-59265865D01*
X74060219Y-58997163D01*
X73863095Y-58623468D01*
X73647239Y-58281598D01*
X73392153Y-57944511D01*
X73077340Y-57585162D01*
X72682303Y-57176509D01*
X72673994Y-57168198D01*
X72303137Y-56809762D01*
X71957467Y-56506390D01*
X71595336Y-56224297D01*
X71175099Y-55929699D01*
X71018500Y-55825254D01*
X70696590Y-55617866D01*
X70339756Y-55396920D01*
X69965743Y-55172467D01*
X69592295Y-54954561D01*
X69237157Y-54753254D01*
X68918074Y-54578597D01*
X68652788Y-54440642D01*
X68459046Y-54349443D01*
X68354592Y-54315051D01*
X68352555Y-54315000D01*
X68300732Y-54326914D01*
X68309702Y-54367721D01*
X68388623Y-54445013D01*
X68546653Y-54566384D01*
X68792946Y-54739427D01*
X69136661Y-54971736D01*
X69177000Y-54998690D01*
X70058895Y-55617211D01*
X70822526Y-56217773D01*
X71474228Y-56806981D01*
X72020338Y-57391441D01*
X72467192Y-57977762D01*
X72821127Y-58572548D01*
X73020557Y-59006237D01*
X73145307Y-59368486D01*
X73229531Y-59728629D01*
X73272431Y-60065427D01*
X73273204Y-60357641D01*
X73231051Y-60584031D01*
X73145171Y-60723358D01*
X73086397Y-60753534D01*
X72969379Y-60812481D01*
X72969379Y-61173000D01*
X73045848Y-61196093D01*
X73015583Y-61256400D01*
X72888300Y-61340460D01*
X72826182Y-61371344D01*
X72686909Y-61424783D01*
X72610809Y-61431091D01*
X72606000Y-61422570D01*
X72655946Y-61346757D01*
X72771439Y-61257097D01*
X72900953Y-61188974D01*
X72969379Y-61173000D01*
X72969379Y-60812481D01*
X72959251Y-60817583D01*
X72795747Y-60940160D01*
X72715853Y-61012584D01*
X72487785Y-61181934D01*
X72276714Y-61235223D01*
X72116939Y-61186049D01*
X72074089Y-61098033D01*
X72040507Y-60910520D01*
X72021689Y-60663820D01*
X72006793Y-60414034D01*
X71982249Y-60265235D01*
X71941220Y-60191442D01*
X71891432Y-60168855D01*
X71780719Y-60193258D01*
X71735666Y-60302039D01*
X71762177Y-60467513D01*
X71806453Y-60567233D01*
X71889515Y-60838035D01*
X71895804Y-61051067D01*
X71875750Y-61331750D01*
X71526500Y-61363500D01*
X71322153Y-61388879D01*
X71212707Y-61427399D01*
X71166076Y-61494220D01*
X71156958Y-61538125D01*
X71182001Y-61651039D01*
X71293651Y-61681179D01*
X71481123Y-61627280D01*
X71566866Y-61586141D01*
X71778579Y-61501426D01*
X71903540Y-61507244D01*
X71936007Y-61597417D01*
X71870235Y-61765768D01*
X71815302Y-61853366D01*
X71687048Y-62110218D01*
X71662294Y-62339600D01*
X71742671Y-62522059D01*
X71757878Y-62538307D01*
X71870078Y-62603994D01*
X72027212Y-62600875D01*
X72259723Y-62528321D01*
X72260682Y-62527954D01*
X72326719Y-62510491D01*
X72328228Y-62549232D01*
X72263731Y-62668275D01*
X72250706Y-62690421D01*
X72137756Y-62855157D01*
X71984773Y-63044496D01*
X71816395Y-63232008D01*
X71657257Y-63391268D01*
X71531995Y-63495847D01*
X71475020Y-63522500D01*
X71405719Y-63470958D01*
X71305333Y-63337793D01*
X71224856Y-63203745D01*
X71088941Y-62997541D01*
X70957148Y-62870784D01*
X70907375Y-62847611D01*
X70795851Y-62778506D01*
X70764500Y-62704245D01*
X70725119Y-62559899D01*
X70631414Y-62417751D01*
X70520042Y-62326985D01*
X70475149Y-62316000D01*
X70398343Y-62361347D01*
X70393338Y-62471484D01*
X70458541Y-62607552D01*
X70488591Y-62644374D01*
X70550447Y-62736897D01*
X70525827Y-62769225D01*
X70437103Y-62746596D01*
X70306645Y-62674249D01*
X70170951Y-62570000D01*
X69995925Y-62441416D01*
X69855689Y-62384173D01*
X69771307Y-62402685D01*
X69759718Y-62483818D01*
X69793982Y-62565147D01*
X69879466Y-62634545D01*
X70045921Y-62713194D01*
X70129500Y-62747099D01*
X70223998Y-62788305D01*
X70213449Y-62803699D01*
X70087553Y-62802057D01*
X70066000Y-62801204D01*
X69913866Y-62808110D01*
X69851936Y-62857826D01*
X69843750Y-62919250D01*
X69864103Y-62998846D01*
X69945892Y-63042039D01*
X70120209Y-63063915D01*
X70145375Y-63065604D01*
X70321241Y-63083499D01*
X70429943Y-63107292D01*
X70447000Y-63119965D01*
X70402366Y-63179348D01*
X70294346Y-63275024D01*
X70288250Y-63279844D01*
X70156908Y-63410553D01*
X70144390Y-63505900D01*
X70227980Y-63564276D01*
X70342783Y-63550408D01*
X70475989Y-63461593D01*
X70637722Y-63370686D01*
X70779541Y-63393377D01*
X70871931Y-63516628D01*
X70891499Y-63645156D01*
X70843456Y-63796599D01*
X70723475Y-63966730D01*
X70567787Y-64117016D01*
X70412617Y-64208927D01*
X70350089Y-64221000D01*
X70251206Y-64184534D01*
X70094619Y-64090648D01*
X69972719Y-64003546D01*
X69778999Y-63877323D01*
X69557557Y-63781697D01*
X69282382Y-63709512D01*
X68927463Y-63653610D01*
X68561108Y-63615120D01*
X68320041Y-63596624D01*
X68167478Y-63599930D01*
X68065747Y-63632378D01*
X67977178Y-63701307D01*
X67941983Y-63735743D01*
X67833152Y-63871004D01*
X67780822Y-63987988D01*
X67780000Y-63999017D01*
X67821293Y-64160694D01*
X67821293Y-64160694D01*
G37*
X67821293Y-64160694D02*
X67931746Y-64384505D01*
X68091218Y-64642278D01*
X68279566Y-64905847D01*
X68476651Y-65147042D01*
X68662329Y-65337693D01*
X68816460Y-65449633D01*
X68817616Y-65450185D01*
X68987020Y-65509658D01*
X69230388Y-65570273D01*
X69495470Y-65619043D01*
X69499243Y-65619603D01*
X70095014Y-65743308D01*
X70637663Y-65926214D01*
X71111065Y-66159654D01*
X71499092Y-66434959D01*
X71785618Y-66743460D01*
X71882220Y-66900512D01*
X71942993Y-67038762D01*
X71936464Y-67126174D01*
X71882395Y-67198156D01*
X71823643Y-67322960D01*
X71799743Y-67496237D01*
X71810043Y-67669530D01*
X71853894Y-67794384D01*
X71890805Y-67824445D01*
X71968359Y-67791236D01*
X72068959Y-67676746D01*
X72105052Y-67620557D01*
X72194707Y-67486697D01*
X72259578Y-67422243D01*
X72272725Y-67422558D01*
X72291219Y-67500243D01*
X72299570Y-67657197D01*
X72299229Y-67727396D01*
X72316439Y-67980245D01*
X72379442Y-68119900D01*
X72486724Y-68143334D01*
X72504341Y-68137495D01*
X72590679Y-68045939D01*
X72585109Y-67885304D01*
X72510750Y-67713500D01*
X72440789Y-67535943D01*
X72417987Y-67396000D01*
X72421147Y-67300675D01*
X72446533Y-67298336D01*
X72512702Y-67396120D01*
X72541804Y-67443625D01*
X72647032Y-67577967D01*
X72746964Y-67647386D01*
X72763816Y-67650000D01*
X72846409Y-67608021D01*
X72851161Y-67503506D01*
X72784889Y-67368585D01*
X72680213Y-67256009D01*
X72556760Y-67120588D01*
X72412279Y-66916724D01*
X72290295Y-66710481D01*
X72134930Y-66460013D01*
X71947258Y-66214248D01*
X71804750Y-66062366D01*
X71671352Y-65929310D01*
X71600136Y-65837396D01*
X71602656Y-65808500D01*
X71749607Y-65772828D01*
X71969853Y-65676592D01*
X72235489Y-65535961D01*
X72518612Y-65367104D01*
X72791318Y-65186190D01*
X73025702Y-65009389D01*
X73114606Y-64932387D01*
X73523188Y-64497404D01*
X73819945Y-64040335D01*
X74020032Y-63536742D01*
X74051521Y-63421475D01*
X74164850Y-62975215D01*
X74410866Y-63153607D01*
X74647926Y-63288597D01*
X74846129Y-63328043D01*
X74988131Y-63269044D01*
X75002648Y-63252625D01*
X75049481Y-63142866D01*
X75090456Y-62964849D01*
X75099965Y-62900884D01*
X75148106Y-62653781D01*
X75220237Y-62524657D01*
X75325670Y-62505344D01*
X75464712Y-62580937D01*
X75626229Y-62666161D01*
X75751545Y-62673155D01*
X75819219Y-62635100D01*
X75813822Y-62572713D01*
X75748970Y-62465410D01*
X75639681Y-62298615D01*
X75859209Y-62466057D01*
X76072626Y-62597337D01*
X76230074Y-62625917D01*
X76324211Y-62550683D01*
X76329847Y-62537441D01*
X76324474Y-62403016D01*
X76204288Y-62295690D01*
X75980157Y-62224278D01*
X75934557Y-62216652D01*
X75766247Y-62179894D01*
X75666122Y-62135782D01*
X75654000Y-62117356D01*
X75706550Y-62043006D01*
X75835053Y-61951106D01*
X75995787Y-61866613D01*
X76145031Y-61814487D01*
X76195495Y-61808237D01*
X76331200Y-61776065D01*
X76476677Y-61700035D01*
X76582458Y-61610248D01*
X76606500Y-61558174D01*
X76563310Y-61477979D01*
X76515811Y-61430785D01*
X76394153Y-61403806D01*
X76227369Y-61453678D01*
X76056480Y-61563938D01*
X75971500Y-61649250D01*
X75818622Y-61782975D01*
X75646552Y-61861197D01*
X75483669Y-61883219D01*
X75358354Y-61848342D01*
X75298986Y-61755869D01*
X75308892Y-61665539D01*
X75384064Y-61491818D01*
X75440303Y-61396995D01*
X75512423Y-61232888D01*
X75518150Y-61075894D01*
X75457760Y-60972147D01*
X75437716Y-60961826D01*
X75321669Y-60977252D01*
X75212981Y-61093860D01*
X75129841Y-61286296D01*
X75098884Y-61434172D01*
X75012119Y-61709495D01*
X74857920Y-61909813D01*
X74653308Y-62114425D01*
X74497071Y-61875793D01*
X74415086Y-61738559D01*
X74374494Y-61617442D01*
X74368664Y-61467691D01*
X74390966Y-61244558D01*
X74396747Y-61198706D01*
X74426279Y-60536640D01*
X74351187Y-59881556D01*
X74176427Y-59265865D01*
X74060219Y-58997163D01*
X73863095Y-58623468D01*
X73647239Y-58281598D01*
X73392153Y-57944511D01*
X73077340Y-57585162D01*
X72682303Y-57176509D01*
X72673994Y-57168198D01*
X72303137Y-56809762D01*
X71957467Y-56506390D01*
X71595336Y-56224297D01*
X71175099Y-55929699D01*
X71018500Y-55825254D01*
X70696590Y-55617866D01*
X70339756Y-55396920D01*
X69965743Y-55172467D01*
X69592295Y-54954561D01*
X69237157Y-54753254D01*
X68918074Y-54578597D01*
X68652788Y-54440642D01*
X68459046Y-54349443D01*
X68354592Y-54315051D01*
X68352555Y-54315000D01*
X68300732Y-54326914D01*
X68309702Y-54367721D01*
X68388623Y-54445013D01*
X68546653Y-54566384D01*
X68792946Y-54739427D01*
X69136661Y-54971736D01*
X69177000Y-54998690D01*
X70058895Y-55617211D01*
X70822526Y-56217773D01*
X71474228Y-56806981D01*
X72020338Y-57391441D01*
X72467192Y-57977762D01*
X72821127Y-58572548D01*
X73020557Y-59006237D01*
X73145307Y-59368486D01*
X73229531Y-59728629D01*
X73272431Y-60065427D01*
X73273204Y-60357641D01*
X73231051Y-60584031D01*
X73145171Y-60723358D01*
X73086397Y-60753534D01*
X72969379Y-60812481D01*
X72969379Y-61173000D01*
X73045848Y-61196093D01*
X73015583Y-61256400D01*
X72888300Y-61340460D01*
X72826182Y-61371344D01*
X72686909Y-61424783D01*
X72610809Y-61431091D01*
X72606000Y-61422570D01*
X72655946Y-61346757D01*
X72771439Y-61257097D01*
X72900953Y-61188974D01*
X72969379Y-61173000D01*
X72969379Y-60812481D01*
X72959251Y-60817583D01*
X72795747Y-60940160D01*
X72715853Y-61012584D01*
X72487785Y-61181934D01*
X72276714Y-61235223D01*
X72116939Y-61186049D01*
X72074089Y-61098033D01*
X72040507Y-60910520D01*
X72021689Y-60663820D01*
X72006793Y-60414034D01*
X71982249Y-60265235D01*
X71941220Y-60191442D01*
X71891432Y-60168855D01*
X71780719Y-60193258D01*
X71735666Y-60302039D01*
X71762177Y-60467513D01*
X71806453Y-60567233D01*
X71889515Y-60838035D01*
X71895804Y-61051067D01*
X71875750Y-61331750D01*
X71526500Y-61363500D01*
X71322153Y-61388879D01*
X71212707Y-61427399D01*
X71166076Y-61494220D01*
X71156958Y-61538125D01*
X71182001Y-61651039D01*
X71293651Y-61681179D01*
X71481123Y-61627280D01*
X71566866Y-61586141D01*
X71778579Y-61501426D01*
X71903540Y-61507244D01*
X71936007Y-61597417D01*
X71870235Y-61765768D01*
X71815302Y-61853366D01*
X71687048Y-62110218D01*
X71662294Y-62339600D01*
X71742671Y-62522059D01*
X71757878Y-62538307D01*
X71870078Y-62603994D01*
X72027212Y-62600875D01*
X72259723Y-62528321D01*
X72260682Y-62527954D01*
X72326719Y-62510491D01*
X72328228Y-62549232D01*
X72263731Y-62668275D01*
X72250706Y-62690421D01*
X72137756Y-62855157D01*
X71984773Y-63044496D01*
X71816395Y-63232008D01*
X71657257Y-63391268D01*
X71531995Y-63495847D01*
X71475020Y-63522500D01*
X71405719Y-63470958D01*
X71305333Y-63337793D01*
X71224856Y-63203745D01*
X71088941Y-62997541D01*
X70957148Y-62870784D01*
X70907375Y-62847611D01*
X70795851Y-62778506D01*
X70764500Y-62704245D01*
X70725119Y-62559899D01*
X70631414Y-62417751D01*
X70520042Y-62326985D01*
X70475149Y-62316000D01*
X70398343Y-62361347D01*
X70393338Y-62471484D01*
X70458541Y-62607552D01*
X70488591Y-62644374D01*
X70550447Y-62736897D01*
X70525827Y-62769225D01*
X70437103Y-62746596D01*
X70306645Y-62674249D01*
X70170951Y-62570000D01*
X69995925Y-62441416D01*
X69855689Y-62384173D01*
X69771307Y-62402685D01*
X69759718Y-62483818D01*
X69793982Y-62565147D01*
X69879466Y-62634545D01*
X70045921Y-62713194D01*
X70129500Y-62747099D01*
X70223998Y-62788305D01*
X70213449Y-62803699D01*
X70087553Y-62802057D01*
X70066000Y-62801204D01*
X69913866Y-62808110D01*
X69851936Y-62857826D01*
X69843750Y-62919250D01*
X69864103Y-62998846D01*
X69945892Y-63042039D01*
X70120209Y-63063915D01*
X70145375Y-63065604D01*
X70321241Y-63083499D01*
X70429943Y-63107292D01*
X70447000Y-63119965D01*
X70402366Y-63179348D01*
X70294346Y-63275024D01*
X70288250Y-63279844D01*
X70156908Y-63410553D01*
X70144390Y-63505900D01*
X70227980Y-63564276D01*
X70342783Y-63550408D01*
X70475989Y-63461593D01*
X70637722Y-63370686D01*
X70779541Y-63393377D01*
X70871931Y-63516628D01*
X70891499Y-63645156D01*
X70843456Y-63796599D01*
X70723475Y-63966730D01*
X70567787Y-64117016D01*
X70412617Y-64208927D01*
X70350089Y-64221000D01*
X70251206Y-64184534D01*
X70094619Y-64090648D01*
X69972719Y-64003546D01*
X69778999Y-63877323D01*
X69557557Y-63781697D01*
X69282382Y-63709512D01*
X68927463Y-63653610D01*
X68561108Y-63615120D01*
X68320041Y-63596624D01*
X68167478Y-63599930D01*
X68065747Y-63632378D01*
X67977178Y-63701307D01*
X67941983Y-63735743D01*
X67833152Y-63871004D01*
X67780822Y-63987988D01*
X67780000Y-63999017D01*
X67821293Y-64160694D01*
G36*
X71815645Y-74111434D02*
X71815956Y-74186793D01*
X71816800Y-74242845D01*
X71818438Y-74282638D01*
X71821138Y-74309217D01*
X71825162Y-74325630D01*
X71830776Y-74334924D01*
X71838244Y-74340145D01*
X71844175Y-74342779D01*
X71864608Y-74348476D01*
X71906063Y-74357787D01*
X71964551Y-74369897D01*
X72036082Y-74383990D01*
X72116666Y-74399253D01*
X72157982Y-74406863D01*
X72240769Y-74422263D01*
X72315735Y-74436763D01*
X72379068Y-74449583D01*
X72426956Y-74459938D01*
X72455587Y-74467047D01*
X72461541Y-74469168D01*
X72471010Y-74483098D01*
X72487841Y-74516094D01*
X72510087Y-74563589D01*
X72535796Y-74621018D01*
X72563021Y-74683814D01*
X72589813Y-74747411D01*
X72614222Y-74807244D01*
X72634299Y-74858745D01*
X72648096Y-74897350D01*
X72653663Y-74918492D01*
X72653694Y-74919335D01*
X72646754Y-74933315D01*
X72627297Y-74965159D01*
X72597280Y-75011855D01*
X72558659Y-75070396D01*
X72513393Y-75137771D01*
X72475894Y-75192820D01*
X72426906Y-75264862D01*
X72383089Y-75330329D01*
X72346398Y-75386217D01*
X72318787Y-75429519D01*
X72302213Y-75457230D01*
X72298200Y-75466006D01*
X72306956Y-75479604D01*
X72331200Y-75507576D01*
X72367889Y-75546921D01*
X72413982Y-75594637D01*
X72466439Y-75647723D01*
X72522219Y-75703177D01*
X72578280Y-75757999D01*
X72631583Y-75809186D01*
X72679085Y-75853739D01*
X72717746Y-75888655D01*
X72744526Y-75910932D01*
X72755858Y-75917700D01*
X72771985Y-75911874D01*
X72803928Y-75894027D01*
X72852543Y-75863601D01*
X72918685Y-75820038D01*
X73003210Y-75762781D01*
X73106974Y-75691274D01*
X73157734Y-75655996D01*
X73206351Y-75623255D01*
X73248643Y-75596832D01*
X73279585Y-75579741D01*
X73293125Y-75574800D01*
X73309290Y-75579603D01*
X73344162Y-75592737D01*
X73393203Y-75612286D01*
X73451877Y-75636336D01*
X73515649Y-75662972D01*
X73579981Y-75690279D01*
X73640338Y-75716341D01*
X73692184Y-75739245D01*
X73730982Y-75757076D01*
X73752196Y-75767917D01*
X73754487Y-75769553D01*
X73758589Y-75783390D01*
X73766540Y-75818662D01*
X73777611Y-75871820D01*
X73791074Y-75939314D01*
X73806202Y-76017597D01*
X73816195Y-76070506D01*
X73832066Y-76154519D01*
X73846730Y-76230703D01*
X73859447Y-76295334D01*
X73869478Y-76344685D01*
X73876084Y-76375030D01*
X73878102Y-76382579D01*
X73884295Y-76388157D01*
X73899865Y-76392479D01*
X73927498Y-76395690D01*
X73969879Y-76397933D01*
X74029695Y-76399353D01*
X74109632Y-76400094D01*
X74208295Y-76400299D01*
X74307636Y-76400181D01*
X74384513Y-76399695D01*
X74441858Y-76398643D01*
X74482607Y-76396827D01*
X74509695Y-76394051D01*
X74526055Y-76390115D01*
X74534622Y-76384824D01*
X74538302Y-76378075D01*
X74543413Y-76356063D01*
X74551457Y-76316100D01*
X74561034Y-76265258D01*
X74565321Y-76241550D01*
X74587681Y-76117801D01*
X74606531Y-76017073D01*
X74622335Y-75937298D01*
X74635557Y-75876409D01*
X74646661Y-75832339D01*
X74656110Y-75803020D01*
X74664369Y-75786385D01*
X74668416Y-75782009D01*
X74685233Y-75773299D01*
X74720782Y-75757362D01*
X74770589Y-75736022D01*
X74830178Y-75711098D01*
X74895074Y-75684411D01*
X74960802Y-75657782D01*
X75022887Y-75633034D01*
X75076853Y-75611985D01*
X75118224Y-75596458D01*
X75142527Y-75588274D01*
X75146526Y-75587464D01*
X75159384Y-75594376D01*
X75190038Y-75613738D01*
X75235412Y-75643520D01*
X75292432Y-75681690D01*
X75358026Y-75726219D01*
X75396520Y-75752600D01*
X75466370Y-75799945D01*
X75530297Y-75841988D01*
X75585018Y-75876672D01*
X75627248Y-75901942D01*
X75653704Y-75915740D01*
X75660169Y-75917700D01*
X75675936Y-75908866D01*
X75706928Y-75883770D01*
X75750828Y-75844515D01*
X75805319Y-75793210D01*
X75868083Y-75731957D01*
X75903408Y-75696686D01*
X75971797Y-75627690D01*
X76024081Y-75574215D01*
X76062192Y-75533900D01*
X76088064Y-75504384D01*
X76103629Y-75483305D01*
X76110821Y-75468303D01*
X76111572Y-75457016D01*
X76107817Y-75447084D01*
X76107792Y-75447038D01*
X76096148Y-75428193D01*
X76072462Y-75392068D01*
X76039149Y-75342264D01*
X75998622Y-75282386D01*
X75953298Y-75216038D01*
X75941583Y-75198983D01*
X75896504Y-75132693D01*
X75856798Y-75072898D01*
X75824603Y-75022937D01*
X75802060Y-74986146D01*
X75791307Y-74965865D01*
X75790700Y-74963542D01*
X75796249Y-74946001D01*
X75811191Y-74911705D01*
X75832967Y-74866310D01*
X75849109Y-74834429D01*
X75873833Y-74783464D01*
X75890544Y-74742639D01*
X75897470Y-74716612D01*
X75896392Y-74710212D01*
X75882253Y-74702727D01*
X75847593Y-74686899D01*
X75795395Y-74664015D01*
X75728639Y-74635363D01*
X75650309Y-74602229D01*
X75563387Y-74565901D01*
X75530007Y-74552058D01*
X75431870Y-74511417D01*
X75333258Y-74470535D01*
X75238881Y-74431366D01*
X75153449Y-74395866D01*
X75081672Y-74365992D01*
X75028257Y-74343698D01*
X75024713Y-74342215D01*
X74966660Y-74318446D01*
X74916240Y-74298801D01*
X74878498Y-74285174D01*
X74858478Y-74279463D01*
X74857553Y-74279400D01*
X74842435Y-74289106D01*
X74818030Y-74314784D01*
X74789138Y-74351272D01*
X74783699Y-74358775D01*
X74692135Y-74469563D01*
X74592688Y-74556364D01*
X74484707Y-74619538D01*
X74367542Y-74659446D01*
X74240541Y-74676450D01*
X74209550Y-74677160D01*
X74082535Y-74666578D01*
X73965836Y-74633408D01*
X73857388Y-74576826D01*
X73755131Y-74496010D01*
X73754453Y-74495377D01*
X73670505Y-74400425D01*
X73607843Y-74294542D01*
X73566597Y-74180851D01*
X73546895Y-74062475D01*
X73548866Y-73942536D01*
X73572638Y-73824157D01*
X73618340Y-73710460D01*
X73686101Y-73604569D01*
X73716260Y-73568580D01*
X73811468Y-73480196D01*
X73917542Y-73414755D01*
X74034071Y-73372439D01*
X74160645Y-73353431D01*
X74201869Y-73352300D01*
X74328752Y-73361355D01*
X74442511Y-73389459D01*
X74545790Y-73438017D01*
X74641228Y-73508438D01*
X74731470Y-73602126D01*
X74774913Y-73657388D01*
X74806539Y-73697429D01*
X74834426Y-73728054D01*
X74854061Y-73744477D01*
X74858490Y-73746000D01*
X74874088Y-73741292D01*
X74910288Y-73727917D01*
X74964256Y-73706999D01*
X75033155Y-73679659D01*
X75114151Y-73647021D01*
X75204408Y-73610207D01*
X75279563Y-73579254D01*
X75379483Y-73537958D01*
X75476158Y-73498057D01*
X75565996Y-73461029D01*
X75645405Y-73428352D01*
X75710794Y-73401506D01*
X75758569Y-73381968D01*
X75778000Y-73374081D01*
X75836664Y-73350060D01*
X75874105Y-73330971D01*
X75892385Y-73311597D01*
X75893565Y-73286721D01*
X75879706Y-73251127D01*
X75852871Y-73199596D01*
X75849473Y-73193214D01*
X75824337Y-73144373D01*
X75804567Y-73102932D01*
X75792809Y-73074603D01*
X75790700Y-73066276D01*
X75797590Y-73051473D01*
X75816912Y-73018956D01*
X75846641Y-72971899D01*
X75884752Y-72913472D01*
X75929219Y-72846849D01*
X75955800Y-72807645D01*
X76002808Y-72738318D01*
X76044608Y-72675957D01*
X76079190Y-72623619D01*
X76104542Y-72584365D01*
X76118655Y-72561252D01*
X76120900Y-72556483D01*
X76112312Y-72545354D01*
X76088178Y-72518851D01*
X76050940Y-72479532D01*
X76003041Y-72429954D01*
X75946923Y-72372675D01*
X75902299Y-72327597D01*
X75840672Y-72266482D01*
X75783955Y-72211896D01*
X75734866Y-72166322D01*
X75696120Y-72132240D01*
X75670434Y-72112132D01*
X75661619Y-72107699D01*
X75645174Y-72114670D01*
X75611231Y-72134204D01*
X75563057Y-72164240D01*
X75503919Y-72202714D01*
X75437084Y-72247562D01*
X75400794Y-72272427D01*
X75331671Y-72319678D01*
X75269019Y-72361668D01*
X75216007Y-72396341D01*
X75175804Y-72421641D01*
X75151579Y-72435512D01*
X75146326Y-72437527D01*
X75128281Y-72432991D01*
X75091444Y-72420271D01*
X75040364Y-72401204D01*
X74979590Y-72377629D01*
X74913668Y-72351383D01*
X74847147Y-72324305D01*
X74784575Y-72298232D01*
X74730500Y-72275002D01*
X74689470Y-72256453D01*
X74666033Y-72244424D01*
X74662891Y-72242157D01*
X74655928Y-72225451D01*
X74645538Y-72187493D01*
X74632580Y-72132068D01*
X74617916Y-72062961D01*
X74602405Y-71983955D01*
X74594518Y-71941463D01*
X74579082Y-71858930D01*
X74564363Y-71784392D01*
X74551170Y-71721627D01*
X74540312Y-71674412D01*
X74532598Y-71646525D01*
X74530146Y-71640975D01*
X74513562Y-71635447D01*
X74476184Y-71630980D01*
X74422192Y-71627563D01*
X74355765Y-71625185D01*
X74281085Y-71623836D01*
X74202331Y-71623505D01*
X74123682Y-71624182D01*
X74049319Y-71625856D01*
X73983422Y-71628518D01*
X73930170Y-71632156D01*
X73893744Y-71636760D01*
X73878323Y-71642320D01*
X73878184Y-71642606D01*
X73874033Y-71659628D01*
X73866021Y-71697910D01*
X73854884Y-71753735D01*
X73841357Y-71823380D01*
X73826176Y-71903127D01*
X73816458Y-71954921D01*
X73800498Y-72038493D01*
X73785429Y-72113730D01*
X73772033Y-72177026D01*
X73761087Y-72224774D01*
X73753372Y-72253368D01*
X73750550Y-72259899D01*
X73733903Y-72269510D01*
X73698441Y-72286424D01*
X73648818Y-72308692D01*
X73589688Y-72334362D01*
X73525704Y-72361484D01*
X73461521Y-72388107D01*
X73401791Y-72412281D01*
X73351168Y-72432054D01*
X73314306Y-72445475D01*
X73295858Y-72450595D01*
X73295631Y-72450600D01*
X73279140Y-72443654D01*
X73245089Y-72424177D01*
X73196722Y-72394206D01*
X73137283Y-72355781D01*
X73070018Y-72310941D01*
X73030224Y-72283844D01*
X72959831Y-72235954D01*
X72895393Y-72192872D01*
X72840186Y-72156729D01*
X72797487Y-72129654D01*
X72770571Y-72113776D01*
X72763689Y-72110590D01*
X72750868Y-72113378D01*
X72728905Y-72127577D01*
X72696154Y-72154629D01*
X72650969Y-72195977D01*
X72591706Y-72253063D01*
X72519214Y-72324834D01*
X72458098Y-72386493D01*
X72403463Y-72442800D01*
X72357763Y-72491127D01*
X72323453Y-72528847D01*
X72302987Y-72553332D01*
X72298200Y-72561384D01*
X72305150Y-72575877D01*
X72324668Y-72608099D01*
X72354754Y-72654972D01*
X72393410Y-72713416D01*
X72438636Y-72780355D01*
X72471479Y-72828220D01*
X72520287Y-72899399D01*
X72564212Y-72964355D01*
X72601182Y-73019951D01*
X72629124Y-73063047D01*
X72645965Y-73090505D01*
X72649985Y-73098509D01*
X72647004Y-73115778D01*
X72635822Y-73151718D01*
X72618276Y-73201663D01*
X72596202Y-73260950D01*
X72571434Y-73324916D01*
X72545808Y-73388898D01*
X72521162Y-73448232D01*
X72499329Y-73498254D01*
X72482147Y-73534300D01*
X72471667Y-73551493D01*
X72455535Y-73557907D01*
X72417980Y-73567971D01*
X72362590Y-73580877D01*
X72292948Y-73595817D01*
X72212640Y-73611986D01*
X72148044Y-73624343D01*
X72062363Y-73640575D01*
X71984858Y-73655634D01*
X71919063Y-73668804D01*
X71868515Y-73679366D01*
X71836751Y-73686603D01*
X71827369Y-73689424D01*
X71823977Y-73703811D01*
X71821010Y-73740489D01*
X71818582Y-73796352D01*
X71816806Y-73868294D01*
X71815794Y-73953208D01*
X71815600Y-74013721D01*
X71815645Y-74111434D01*
X71815645Y-74111434D01*
G37*
X71815645Y-74111434D02*
X71815956Y-74186793D01*
X71816800Y-74242845D01*
X71818438Y-74282638D01*
X71821138Y-74309217D01*
X71825162Y-74325630D01*
X71830776Y-74334924D01*
X71838244Y-74340145D01*
X71844175Y-74342779D01*
X71864608Y-74348476D01*
X71906063Y-74357787D01*
X71964551Y-74369897D01*
X72036082Y-74383990D01*
X72116666Y-74399253D01*
X72157982Y-74406863D01*
X72240769Y-74422263D01*
X72315735Y-74436763D01*
X72379068Y-74449583D01*
X72426956Y-74459938D01*
X72455587Y-74467047D01*
X72461541Y-74469168D01*
X72471010Y-74483098D01*
X72487841Y-74516094D01*
X72510087Y-74563589D01*
X72535796Y-74621018D01*
X72563021Y-74683814D01*
X72589813Y-74747411D01*
X72614222Y-74807244D01*
X72634299Y-74858745D01*
X72648096Y-74897350D01*
X72653663Y-74918492D01*
X72653694Y-74919335D01*
X72646754Y-74933315D01*
X72627297Y-74965159D01*
X72597280Y-75011855D01*
X72558659Y-75070396D01*
X72513393Y-75137771D01*
X72475894Y-75192820D01*
X72426906Y-75264862D01*
X72383089Y-75330329D01*
X72346398Y-75386217D01*
X72318787Y-75429519D01*
X72302213Y-75457230D01*
X72298200Y-75466006D01*
X72306956Y-75479604D01*
X72331200Y-75507576D01*
X72367889Y-75546921D01*
X72413982Y-75594637D01*
X72466439Y-75647723D01*
X72522219Y-75703177D01*
X72578280Y-75757999D01*
X72631583Y-75809186D01*
X72679085Y-75853739D01*
X72717746Y-75888655D01*
X72744526Y-75910932D01*
X72755858Y-75917700D01*
X72771985Y-75911874D01*
X72803928Y-75894027D01*
X72852543Y-75863601D01*
X72918685Y-75820038D01*
X73003210Y-75762781D01*
X73106974Y-75691274D01*
X73157734Y-75655996D01*
X73206351Y-75623255D01*
X73248643Y-75596832D01*
X73279585Y-75579741D01*
X73293125Y-75574800D01*
X73309290Y-75579603D01*
X73344162Y-75592737D01*
X73393203Y-75612286D01*
X73451877Y-75636336D01*
X73515649Y-75662972D01*
X73579981Y-75690279D01*
X73640338Y-75716341D01*
X73692184Y-75739245D01*
X73730982Y-75757076D01*
X73752196Y-75767917D01*
X73754487Y-75769553D01*
X73758589Y-75783390D01*
X73766540Y-75818662D01*
X73777611Y-75871820D01*
X73791074Y-75939314D01*
X73806202Y-76017597D01*
X73816195Y-76070506D01*
X73832066Y-76154519D01*
X73846730Y-76230703D01*
X73859447Y-76295334D01*
X73869478Y-76344685D01*
X73876084Y-76375030D01*
X73878102Y-76382579D01*
X73884295Y-76388157D01*
X73899865Y-76392479D01*
X73927498Y-76395690D01*
X73969879Y-76397933D01*
X74029695Y-76399353D01*
X74109632Y-76400094D01*
X74208295Y-76400299D01*
X74307636Y-76400181D01*
X74384513Y-76399695D01*
X74441858Y-76398643D01*
X74482607Y-76396827D01*
X74509695Y-76394051D01*
X74526055Y-76390115D01*
X74534622Y-76384824D01*
X74538302Y-76378075D01*
X74543413Y-76356063D01*
X74551457Y-76316100D01*
X74561034Y-76265258D01*
X74565321Y-76241550D01*
X74587681Y-76117801D01*
X74606531Y-76017073D01*
X74622335Y-75937298D01*
X74635557Y-75876409D01*
X74646661Y-75832339D01*
X74656110Y-75803020D01*
X74664369Y-75786385D01*
X74668416Y-75782009D01*
X74685233Y-75773299D01*
X74720782Y-75757362D01*
X74770589Y-75736022D01*
X74830178Y-75711098D01*
X74895074Y-75684411D01*
X74960802Y-75657782D01*
X75022887Y-75633034D01*
X75076853Y-75611985D01*
X75118224Y-75596458D01*
X75142527Y-75588274D01*
X75146526Y-75587464D01*
X75159384Y-75594376D01*
X75190038Y-75613738D01*
X75235412Y-75643520D01*
X75292432Y-75681690D01*
X75358026Y-75726219D01*
X75396520Y-75752600D01*
X75466370Y-75799945D01*
X75530297Y-75841988D01*
X75585018Y-75876672D01*
X75627248Y-75901942D01*
X75653704Y-75915740D01*
X75660169Y-75917700D01*
X75675936Y-75908866D01*
X75706928Y-75883770D01*
X75750828Y-75844515D01*
X75805319Y-75793210D01*
X75868083Y-75731957D01*
X75903408Y-75696686D01*
X75971797Y-75627690D01*
X76024081Y-75574215D01*
X76062192Y-75533900D01*
X76088064Y-75504384D01*
X76103629Y-75483305D01*
X76110821Y-75468303D01*
X76111572Y-75457016D01*
X76107817Y-75447084D01*
X76107792Y-75447038D01*
X76096148Y-75428193D01*
X76072462Y-75392068D01*
X76039149Y-75342264D01*
X75998622Y-75282386D01*
X75953298Y-75216038D01*
X75941583Y-75198983D01*
X75896504Y-75132693D01*
X75856798Y-75072898D01*
X75824603Y-75022937D01*
X75802060Y-74986146D01*
X75791307Y-74965865D01*
X75790700Y-74963542D01*
X75796249Y-74946001D01*
X75811191Y-74911705D01*
X75832967Y-74866310D01*
X75849109Y-74834429D01*
X75873833Y-74783464D01*
X75890544Y-74742639D01*
X75897470Y-74716612D01*
X75896392Y-74710212D01*
X75882253Y-74702727D01*
X75847593Y-74686899D01*
X75795395Y-74664015D01*
X75728639Y-74635363D01*
X75650309Y-74602229D01*
X75563387Y-74565901D01*
X75530007Y-74552058D01*
X75431870Y-74511417D01*
X75333258Y-74470535D01*
X75238881Y-74431366D01*
X75153449Y-74395866D01*
X75081672Y-74365992D01*
X75028257Y-74343698D01*
X75024713Y-74342215D01*
X74966660Y-74318446D01*
X74916240Y-74298801D01*
X74878498Y-74285174D01*
X74858478Y-74279463D01*
X74857553Y-74279400D01*
X74842435Y-74289106D01*
X74818030Y-74314784D01*
X74789138Y-74351272D01*
X74783699Y-74358775D01*
X74692135Y-74469563D01*
X74592688Y-74556364D01*
X74484707Y-74619538D01*
X74367542Y-74659446D01*
X74240541Y-74676450D01*
X74209550Y-74677160D01*
X74082535Y-74666578D01*
X73965836Y-74633408D01*
X73857388Y-74576826D01*
X73755131Y-74496010D01*
X73754453Y-74495377D01*
X73670505Y-74400425D01*
X73607843Y-74294542D01*
X73566597Y-74180851D01*
X73546895Y-74062475D01*
X73548866Y-73942536D01*
X73572638Y-73824157D01*
X73618340Y-73710460D01*
X73686101Y-73604569D01*
X73716260Y-73568580D01*
X73811468Y-73480196D01*
X73917542Y-73414755D01*
X74034071Y-73372439D01*
X74160645Y-73353431D01*
X74201869Y-73352300D01*
X74328752Y-73361355D01*
X74442511Y-73389459D01*
X74545790Y-73438017D01*
X74641228Y-73508438D01*
X74731470Y-73602126D01*
X74774913Y-73657388D01*
X74806539Y-73697429D01*
X74834426Y-73728054D01*
X74854061Y-73744477D01*
X74858490Y-73746000D01*
X74874088Y-73741292D01*
X74910288Y-73727917D01*
X74964256Y-73706999D01*
X75033155Y-73679659D01*
X75114151Y-73647021D01*
X75204408Y-73610207D01*
X75279563Y-73579254D01*
X75379483Y-73537958D01*
X75476158Y-73498057D01*
X75565996Y-73461029D01*
X75645405Y-73428352D01*
X75710794Y-73401506D01*
X75758569Y-73381968D01*
X75778000Y-73374081D01*
X75836664Y-73350060D01*
X75874105Y-73330971D01*
X75892385Y-73311597D01*
X75893565Y-73286721D01*
X75879706Y-73251127D01*
X75852871Y-73199596D01*
X75849473Y-73193214D01*
X75824337Y-73144373D01*
X75804567Y-73102932D01*
X75792809Y-73074603D01*
X75790700Y-73066276D01*
X75797590Y-73051473D01*
X75816912Y-73018956D01*
X75846641Y-72971899D01*
X75884752Y-72913472D01*
X75929219Y-72846849D01*
X75955800Y-72807645D01*
X76002808Y-72738318D01*
X76044608Y-72675957D01*
X76079190Y-72623619D01*
X76104542Y-72584365D01*
X76118655Y-72561252D01*
X76120900Y-72556483D01*
X76112312Y-72545354D01*
X76088178Y-72518851D01*
X76050940Y-72479532D01*
X76003041Y-72429954D01*
X75946923Y-72372675D01*
X75902299Y-72327597D01*
X75840672Y-72266482D01*
X75783955Y-72211896D01*
X75734866Y-72166322D01*
X75696120Y-72132240D01*
X75670434Y-72112132D01*
X75661619Y-72107699D01*
X75645174Y-72114670D01*
X75611231Y-72134204D01*
X75563057Y-72164240D01*
X75503919Y-72202714D01*
X75437084Y-72247562D01*
X75400794Y-72272427D01*
X75331671Y-72319678D01*
X75269019Y-72361668D01*
X75216007Y-72396341D01*
X75175804Y-72421641D01*
X75151579Y-72435512D01*
X75146326Y-72437527D01*
X75128281Y-72432991D01*
X75091444Y-72420271D01*
X75040364Y-72401204D01*
X74979590Y-72377629D01*
X74913668Y-72351383D01*
X74847147Y-72324305D01*
X74784575Y-72298232D01*
X74730500Y-72275002D01*
X74689470Y-72256453D01*
X74666033Y-72244424D01*
X74662891Y-72242157D01*
X74655928Y-72225451D01*
X74645538Y-72187493D01*
X74632580Y-72132068D01*
X74617916Y-72062961D01*
X74602405Y-71983955D01*
X74594518Y-71941463D01*
X74579082Y-71858930D01*
X74564363Y-71784392D01*
X74551170Y-71721627D01*
X74540312Y-71674412D01*
X74532598Y-71646525D01*
X74530146Y-71640975D01*
X74513562Y-71635447D01*
X74476184Y-71630980D01*
X74422192Y-71627563D01*
X74355765Y-71625185D01*
X74281085Y-71623836D01*
X74202331Y-71623505D01*
X74123682Y-71624182D01*
X74049319Y-71625856D01*
X73983422Y-71628518D01*
X73930170Y-71632156D01*
X73893744Y-71636760D01*
X73878323Y-71642320D01*
X73878184Y-71642606D01*
X73874033Y-71659628D01*
X73866021Y-71697910D01*
X73854884Y-71753735D01*
X73841357Y-71823380D01*
X73826176Y-71903127D01*
X73816458Y-71954921D01*
X73800498Y-72038493D01*
X73785429Y-72113730D01*
X73772033Y-72177026D01*
X73761087Y-72224774D01*
X73753372Y-72253368D01*
X73750550Y-72259899D01*
X73733903Y-72269510D01*
X73698441Y-72286424D01*
X73648818Y-72308692D01*
X73589688Y-72334362D01*
X73525704Y-72361484D01*
X73461521Y-72388107D01*
X73401791Y-72412281D01*
X73351168Y-72432054D01*
X73314306Y-72445475D01*
X73295858Y-72450595D01*
X73295631Y-72450600D01*
X73279140Y-72443654D01*
X73245089Y-72424177D01*
X73196722Y-72394206D01*
X73137283Y-72355781D01*
X73070018Y-72310941D01*
X73030224Y-72283844D01*
X72959831Y-72235954D01*
X72895393Y-72192872D01*
X72840186Y-72156729D01*
X72797487Y-72129654D01*
X72770571Y-72113776D01*
X72763689Y-72110590D01*
X72750868Y-72113378D01*
X72728905Y-72127577D01*
X72696154Y-72154629D01*
X72650969Y-72195977D01*
X72591706Y-72253063D01*
X72519214Y-72324834D01*
X72458098Y-72386493D01*
X72403463Y-72442800D01*
X72357763Y-72491127D01*
X72323453Y-72528847D01*
X72302987Y-72553332D01*
X72298200Y-72561384D01*
X72305150Y-72575877D01*
X72324668Y-72608099D01*
X72354754Y-72654972D01*
X72393410Y-72713416D01*
X72438636Y-72780355D01*
X72471479Y-72828220D01*
X72520287Y-72899399D01*
X72564212Y-72964355D01*
X72601182Y-73019951D01*
X72629124Y-73063047D01*
X72645965Y-73090505D01*
X72649985Y-73098509D01*
X72647004Y-73115778D01*
X72635822Y-73151718D01*
X72618276Y-73201663D01*
X72596202Y-73260950D01*
X72571434Y-73324916D01*
X72545808Y-73388898D01*
X72521162Y-73448232D01*
X72499329Y-73498254D01*
X72482147Y-73534300D01*
X72471667Y-73551493D01*
X72455535Y-73557907D01*
X72417980Y-73567971D01*
X72362590Y-73580877D01*
X72292948Y-73595817D01*
X72212640Y-73611986D01*
X72148044Y-73624343D01*
X72062363Y-73640575D01*
X71984858Y-73655634D01*
X71919063Y-73668804D01*
X71868515Y-73679366D01*
X71836751Y-73686603D01*
X71827369Y-73689424D01*
X71823977Y-73703811D01*
X71821010Y-73740489D01*
X71818582Y-73796352D01*
X71816806Y-73868294D01*
X71815794Y-73953208D01*
X71815600Y-74013721D01*
X71815645Y-74111434D01*
M02*
