G04 #@! TF.GenerationSoftware,KiCad,Pcbnew,(5.0.0-rc2-dev-222-g3b0a758)*
G04 #@! TF.CreationDate,2018-03-21T23:14:10+01:00*
G04 #@! TF.ProjectId,Geckonator Dev Edition,4765636B6F6E61746F72204465762045,rev?*
G04 #@! TF.SameCoordinates,Original*
G04 #@! TF.FileFunction,Paste,Top*
G04 #@! TF.FilePolarity,Positive*
%FSLAX46Y46*%
G04 Gerber Fmt 4.6, Leading zero omitted, Abs format (unit mm)*
G04 Created by KiCad (PCBNEW (5.0.0-rc2-dev-222-g3b0a758)) date Wednesday, 21 March 2018 at 23:14:10*
%MOMM*%
%LPD*%
G01*
G04 APERTURE LIST*
%ADD10R,0.889000X0.889000*%
%ADD11R,0.889000X0.762000*%
%ADD12R,2.540000X1.270000*%
%ADD13R,0.250000X1.300000*%
%ADD14R,1.300000X0.250000*%
%ADD15R,1.348740X0.398780*%
%ADD16C,1.899920*%
%ADD17O,2.032000X1.016000*%
%ADD18C,1.305560*%
G04 APERTURE END LIST*
D10*
X64000000Y-70162000D03*
X64000000Y-68638000D03*
X62000000Y-68638000D03*
X62000000Y-70162000D03*
X58238000Y-71000000D03*
X59762000Y-71000000D03*
D11*
X73000000Y-59238000D03*
X73000000Y-60762000D03*
X71000000Y-60762000D03*
X71000000Y-59238000D03*
X69000000Y-59238000D03*
X69000000Y-60762000D03*
D12*
X53872500Y-81841000D03*
X53872500Y-86159000D03*
X62127500Y-86159000D03*
X62127500Y-81841000D03*
X62127500Y-61841000D03*
X62127500Y-66159000D03*
X53872500Y-66159000D03*
X53872500Y-61841000D03*
D10*
X73000000Y-64762000D03*
X73000000Y-63238000D03*
X71000000Y-63238000D03*
X71000000Y-64762000D03*
X69000000Y-64762000D03*
X69000000Y-63238000D03*
X65013000Y-83850000D03*
X66537000Y-83850000D03*
X58238000Y-73000000D03*
X59762000Y-73000000D03*
X59762000Y-75000000D03*
X58238000Y-75000000D03*
D13*
X72750000Y-78350000D03*
X72250000Y-78350000D03*
X71750000Y-78350000D03*
X71250000Y-78350000D03*
X70750000Y-78350000D03*
X70250000Y-78350000D03*
X69750000Y-78350000D03*
X69250000Y-78350000D03*
X68750000Y-78350000D03*
X68250000Y-78350000D03*
X67750000Y-78350000D03*
X67250000Y-78350000D03*
D14*
X65650000Y-76750000D03*
X65650000Y-76250000D03*
X65650000Y-75750000D03*
X65650000Y-75250000D03*
X65650000Y-74750000D03*
X65650000Y-74250000D03*
X65650000Y-73750000D03*
X65650000Y-73250000D03*
X65650000Y-72750000D03*
X65650000Y-72250000D03*
X65650000Y-71750000D03*
X65650000Y-71250000D03*
D13*
X67250000Y-69650000D03*
X67750000Y-69650000D03*
X68250000Y-69650000D03*
X68750000Y-69650000D03*
X69250000Y-69650000D03*
X69750000Y-69650000D03*
X70250000Y-69650000D03*
X70750000Y-69650000D03*
X71250000Y-69650000D03*
X71750000Y-69650000D03*
X72250000Y-69650000D03*
X72750000Y-69650000D03*
D14*
X74350000Y-71250000D03*
X74350000Y-71750000D03*
X74350000Y-72250000D03*
X74350000Y-72750000D03*
X74350000Y-73250000D03*
X74350000Y-73750000D03*
X74350000Y-74250000D03*
X74350000Y-74750000D03*
X74350000Y-75250000D03*
X74350000Y-75750000D03*
X74350000Y-76250000D03*
X74350000Y-76750000D03*
D15*
X54372740Y-72702060D03*
X54372740Y-73352300D03*
X54372740Y-74000000D03*
X54372740Y-74647700D03*
X54372740Y-75297940D03*
D16*
X51500000Y-72801120D03*
X51500000Y-75198880D03*
D17*
X51500000Y-70375420D03*
X51500000Y-77624580D03*
D18*
X54227960Y-71576840D03*
X54227960Y-76423160D03*
M02*
